<svg width="1200" height="800" viewBox="0 0 1200 800" fill="none" xmlns="http://www.w3.org/2000/svg">
<g clip-path="url(#clip0_4_966)">
<rect width="1200" height="800" rx="40" fill="white"/>
<mask id="mask0_4_966" style="mask-type:luminance" maskUnits="userSpaceOnUse" x="0" y="0" width="1200" height="800">
<path d="M1200 0H0V800H1200V0Z" fill="white"/>
</mask>
<g mask="url(#mask0_4_966)">
<path d="M1200 0H0V800H1200V0Z" fill="#E6F4FF"/>
</g>
<mask id="mask1_4_966" style="mask-type:luminance" maskUnits="userSpaceOnUse" x="0" y="0" width="1200" height="800">
<path d="M1200 0H0V800H1200V0Z" fill="white"/>
</mask>
<g mask="url(#mask1_4_966)">
<path d="M-760.2 959.6C-746.5 883.1 -669.1 837.5 -594.4 828.6C-519.7 819.6 -443.6 837.1 -368.1 837.1C-165.8 837 24.9 697.8 91.1 501.9C112.3 439.1 121.6 372.2 142.3 309.2C163 246.2 198.1 184.9 255.1 154.9C337.1 111.8 439.8 145 522.5 193.2C605.2 241.4 682.7 305.2 774.4 327.3C894.9 356.3 1020 306.4 1112.2 225.9C1204.3 145.4 1269.4 37.2001 1333 -69.2" stroke="#D4E8F7" stroke-miterlimit="10"/>
<path d="M-764.7 952.2C-749.7 876.1 -672.5 830.6 -597.7 821.4C-565.4 817.4 -532.7 818.4 -500 821.1C-457.1 824.6 -414.1 830.8 -371.4 831.7C-284.3 833.6 -199.4 811.3 -124.8 768C-67.2001 734.6 -15.9 690.5 25 637.6C54.3 600 77.6 557.6 93.9 511.6C101.2 491 107.2 469.9 112.7 448.6C123.9 405.3 133.1 361.3 147.6 319.4C164.1 271.9 189 225.9 226 194.6C237.5 184.8 250 176.4 263.7 169.8C321.2 142.2 387.7 151.7 451.3 175.2C478.8 185.4 505.8 198.1 530.9 211.8C559 227.1 586.5 243.6 613.9 259.3C667.7 290.3 720.8 318.8 778.3 329.2C815.7 335.9 852.6 334.2 889.1 326C963.3 309.4 1036.2 265.1 1097 208.6C1113.7 193.1 1129.6 176.8 1145 159.8C1213.4 84.2999 1270.6 -3.00005 1327 -85.3" stroke="#D4E8F7" stroke-miterlimit="10"/>
<path d="M-769.2 944.7C-752.8 869 -675.9 823.5 -601 814C-568.6 809.9 -535.9 810.9 -503.1 813.7C-460.2 817.4 -417.2 824.2 -374.6 826.1C-287.7 830 -202.9 811.3 -127.6 769.8C-69.4 737.8 -17.3 695.8 25.2 644.9C55.6 608.5 79.8 566.8 96.8 521.1C104.4 500.7 110.6 479.6 116.4 458.3C128.1 415.1 137.8 371 152.9 329.5C170.1 282.3 195.9 237.4 234.1 207.6C245.9 198.4 258.5 190.5 272.3 184.5C330.1 159.4 395.7 171.2 459.2 194.8C486.8 205 514 217.3 539.4 230.1C567.8 244.4 595.6 259.4 622.9 273.2C676.5 300.6 728.2 324.7 782.4 330.7C817.5 334.6 851 330.1 884.7 319.7C953 298.4 1022.3 250.1 1082.1 191C1098.5 174.8 1114.4 157.8 1129.9 140.4C1199 62.6 1260.5 -23.9 1321.2 -101.8" stroke="#D4E8F7" stroke-miterlimit="10"/>
<path d="M-773.7 937.2C-755.9 861.9 -679.3 816.4 -604.3 806.7C-571.9 802.5 -539 803.4 -506.2 806.4C-463.2 810.4 -420.4 817.8 -377.8 820.6C-291 826.5 -206.5 811.4 -130.4 771.7C-71.6 741.1 -18.6 701.2 25.4 652.3C57 617.1 82 576.1 99.7 530.6C107.6 510.3 114.1 489.4 120.2 468C132.4 424.9 142.6 380.7 158.3 339.5C176.2 292.6 202.8 248.8 242.3 220.5C254.4 211.9 267.1 204.5 280.9 199.2C338.9 176.6 403.7 190.8 467.1 214.4C494.8 224.7 522.1 236.5 547.8 248.4C576.5 261.7 604.5 275.2 631.8 287.2C685.2 310.8 735.6 330.7 786.4 332.3C819.3 333.3 849.4 326.2 880.1 313.5C942.5 287.7 1008.2 235.1 1066.9 173.5C1083 156.5 1098.8 139 1114.4 121.1C1184.1 41 1249.9 -44.7 1315.1 -118.1" stroke="#D4E8F7" stroke-miterlimit="10"/>
<path d="M-778.2 929.7C-759 854.9 -682.7 809.3 -607.5 799.4C-575 795.1 -542.1 795.9 -509.2 799.2C-466.2 803.4 -423.4 811.4 -380.9 815.2C-294.3 823 -209.9 811.6 -133.2 773.8C-73.7 744.6 -19.8 706.9 25.5 659.9C58.4 625.9 84.1 585.6 102.4 540.4C110.6 520.3 117.4 499.4 123.7 478C136.4 434.9 147.1 390.8 163.5 349.8C182.1 303.3 209.5 260.4 250.3 233.8C262.7 225.7 275.5 219 289.4 214.2C347.7 194.1 411.5 210.7 475 234.3C502.7 244.7 530.3 256 556.2 267.1C585.2 279.5 613.5 291.4 640.6 301.6C693.8 321.6 742.9 337 790.2 334.3C820.9 332.5 847.6 322.6 875.4 307.6C932 277.2 993.9 220.5 1051.7 156.4C1067.6 138.7 1083.3 120.5 1099 102.1C1169.3 19.8 1239.4 -65.3 1309 -134.1" stroke="#D4E8F7" stroke-miterlimit="10"/>
<path d="M-782.7 922.2C-762.1 847.8 -686.1 802.2 -610.8 792.1C-578.3 787.7 -545.3 788.5 -512.3 791.9C-469.3 796.3 -426.5 804.9 -384.1 809.7C-297.7 819.5 -213.5 811.6 -136 775.7C-75.9 747.9 -21.1 712.4 25.7 667.4C59.7999 634.6 86.3 594.9 105.3 550C113.8 530 120.9 509.2 127.4 487.9C140.6 444.9 151.8 400.7 168.8 360.1C188.1 313.9 216.3 272.1 258.4 247C271 239.5 284 233.3 297.9 229.1C356.4 211.6 419.4 230.4 482.8 254.2C510.6 264.6 538.4 275.5 564.6 285.7C593.9 297.1 622.4 307.5 649.5 315.8C702.5 332.1 750.5 343.2 794.2 336.1C822.8 331.5 845.9 318.8 870.9 301.6C921.7 266.5 979.9 205.8 1036.7 139.1C1052.3 120.7 1068 101.9 1083.8 83.0001C1154.7 -1.59994 1229.2 -85.8999 1303.2 -150.2" stroke="#D4E8F7" stroke-miterlimit="10"/>
<path d="M-787.3 914.8C-765.3 840.8 -689.6 795.3 -614.2 784.9C-581.6 780.4 -548.5 781.1 -515.5 784.7C-472.4 789.4 -429.8 798.6 -387.4 804.3C-301.1 816 -217.1 811.8 -138.9 777.7C-78.2 751.4 -22.4 718 25.8 674.9C61.2001 643.3 88.4 604.3 108.1 559.7C116.8 539.8 124.2 519.1 131.1 497.8C144.8 454.9 156.6 410.6 174.1 370.3C194.1 324.5 223.1 283.6 266.5 260.1C279.4 253.1 292.5 247.5 306.5 243.9C365.2 228.9 427.3 250.1 490.7 273.9C518.6 284.4 546.6 294.8 573 304.1C602.6 314.5 631.3 323.4 658.4 329.9C711.2 342.6 758.2 349.1 798.2 337.8C824.8 330.3 844.3 314.9 866.3 295.4C911.2 255.7 965.8 190.8 1021.6 121.6C1036.9 102.4 1052.6 83 1068.5 63.7C1140.1 -23.2 1218.8 -106.7 1297.2 -166.6" stroke="#D4E8F7" stroke-miterlimit="10"/>
<path d="M-791.8 907.3C-768.4 833.8 -693 788.2 -617.5 777.5C-584.9 772.9 -551.7 773.6 -518.6 777.4C-475.5 782.3 -432.9 792.1 -390.6 798.8C-304.5 812.5 -220.6 811.9 -141.7 779.6C-80.4 754.7 -23.5999 723.5 26.0001 682.3C62.6001 651.9 90.6001 613.6 111 569.3C120 549.6 127.7 528.9 134.8 507.6C149 464.7 161.3 420.4 179.4 380.4C200.1 334.9 229.9 295 274.6 273.2C287.7 266.8 301 261.7 315 258.7C374 246.2 435.2 269.8 498.5 293.6C526.4 304.1 554.7 314.1 581.3 322.5C611.1 331.9 640.2 339.3 667.2 343.9C719.8 352.9 765.8 354.8 802 339.4C826.7 328.9 842.4 310.9 861.6 289.2C900.7 244.8 951.6 175.9 1006.4 104.1C1021.5 84.1999 1037 64.2 1053.1 44.4C1125.3 -44.8 1208.4 -127.6 1291.2 -182.9" stroke="#D4E8F7" stroke-miterlimit="10"/>
<path d="M-796.3 899.8C-771.5 826.7 -696.4 781.1 -620.7 770.2C-588 765.5 -554.7 766.1 -521.6 770.1C-478.5 775.3 -435.9 785.7 -393.8 793.3C-307.9 809 -224.2 812 -144.5 781.6C-82.5999 758.1 -24.9 729.1 26.2 689.8C64.1 660.6 92.8 623 113.9 578.9C123.2 559.3 131.2 538.7 138.6 517.4C153.3 474.6 166.1 430.2 184.8 390.5C206.2 345.3 236.7 306.4 282.8 286.2C296.2 280.3 309.6 275.8 323.7 273.5C382.9 263.5 443.2 289.4 506.5 313.3C534.5 323.9 563 333.4 589.9 341C620 349.5 649.3 355.3 676.3 358.1C728.7 363.5 773.9 360.6 806.2 341.2C829 327.6 841 307.1 857.2 283.2C890.4 234.1 937.7 161.2 991.4 86.8C1006.2 66.2 1021.7 45.5 1037.9 25.3C1110.7 -66.2 1198.1 -148.2 1285.3 -199" stroke="#D4E8F7" stroke-miterlimit="10"/>
<path d="M-800.8 892.3C-774.6 819.6 -699.8 774 -624 762.9C-591.3 758.1 -557.9 758.6 -524.7 762.8C-481.6 768.2 -439.1 779.2 -397 787.9C-311.2 805.5 -227.7 812.2 -147.3 783.6C-84.8 761.5 -26.1 734.7 26.4 697.4C65.6 669.5 95 632.5 116.8 588.7C126.4 569.3 134.6 548.7 142.3 527.4C157.6 484.7 170.8 440.2 190.1 400.9C212.2 356.1 243.5 318.1 290.9 299.6C304.5 294.3 318.1 290.4 332.2 288.6C391.6 281.1 451.1 309.4 514.3 333.3C542.4 343.9 571 353 598.2 359.7C628.6 367.2 658.1 371.5 685 372.4C737.2 374.1 781.4 366.2 810 343.1C830.8 326.3 839.1 303.4 852.5 277.2C879.9 223.4 923.4 146.4 976.2 69.4999C990.8 48.1999 1006.2 26.9 1022.5 6.09996C1095.9 -87.7 1187.7 -168.9 1279.3 -215.3" stroke="#D4E8F7" stroke-miterlimit="10"/>
<path d="M-805.3 884.8C-777.8 812.5 -703.2 767 -627.3 755.6C-594.5 750.7 -561.1 751.2 -527.9 755.5C-484.7 761.2 -442.3 772.7 -400.3 782.4C-314.7 802 -231.4 812.2 -150.2 785.5C-87 764.8 -27.2999 740.3 26.5001 704.8C67.0001 678.1 97.1 641.8 119.6 598.2C129.5 578.9 138 558.4 145.9 537.1C161.7 494.4 175.4 449.9 195.3 410.9C218.1 366.4 250.1 329.3 298.9 312.5C312.8 307.7 326.5 304.4 340.7 303.2C400.4 298.3 458.9 328.8 522.1 352.9C550.2 363.6 579.1 372.2 606.5 378C637.2 384.5 666.9 387.4 693.8 386.4C745.7 384.5 789 371.3 813.8 344.7C832.7 324.5 837.3 299.4 847.7 271C869.2 212.5 909.1 131.5 960.9 52C975.2 29.9 990.5 8.10002 1007 -13.2C1081.1 -109.3 1177.1 -189.7 1273.2 -231.6" stroke="#D4E8F7" stroke-miterlimit="10"/>
<path d="M-809.8 877.4C-780.9 805.6 -706.6 760 -630.6 748.4C-597.8 743.4 -564.2 743.8 -531 748.4C-487.8 754.3 -445.4 766.5 -403.5 777.1C-318 798.7 -234.9 812.5 -153 787.6C-89.1999 768.4 -28.5 746 26.7 712.4C68.4 687 99.3001 651.3 122.5 608C132.7 588.9 141.5 568.4 149.7 547.1C166 504.5 180.2 460 200.8 421.2C224.3 377.1 257 340.9 307.3 325.7C321.4 321.4 335.3 318.7 349.6 318.1C409.5 315.7 467.2 348.6 530.3 372.7C558.5 383.5 587.6 391.6 615.3 396.6C646.3 402.1 676.3 403.5 703.1 400.7C754.8 395.2 796.9 376.7 818.2 346.7C834.9 323.1 836 295.8 843.6 265.1C859.2 201.9 895.5 116.9 946.3 34.9C960.3 12.1 975.6 -10.4 992.1 -32.1C1066.8 -130.4 1167.1 -210.2 1267.6 -247.5" stroke="#D4E8F7" stroke-miterlimit="10"/>
<path d="M-814.3 869.9C-784 798.5 -710 752.9 -633.8 741C-600.9 735.9 -567.3 736.2 -534 741C-490.8 747.1 -448.5 759.9 -406.6 771.5C-321.3 795 -238.3 812.5 -155.8 789.5C-91.4 771.7 -29.7 751.6 26.8 719.8C69.8 695.6 101.4 660.6 125.3 617.6C135.8 598.6 144.9 578.2 153.3 556.9C170.1 514.4 184.8 469.8 206 431.4C230.1 387.6 263.6 352.3 315.3 338.9C329.7 335.2 343.7 333 358 333C418.1 333.1 474.9 368.4 538 392.5C566.3 403.3 595.6 411 623.5 415.1C654.8 419.7 685 419.5 711.8 414.8C763.3 405.7 804.1 381.8 822 348.4C836.5 321.3 834.1 291.9 838.8 259C848.5 191.1 881.2 102 931 17.5001C944.8 -5.99994 960 -29.0999 976.6 -51.2999C1051.9 -151.9 1156.6 -230.9 1261.5 -263.7" stroke="#D4E8F7" stroke-miterlimit="10"/>
<path d="M-818.9 862.4C-787.2 791.4 -713.6 745.8 -637.2 733.7C-604.3 728.5 -570.5 728.8 -537.2 733.7C-493.9 740.1 -451.7 753.4 -409.9 766C-324.8 791.5 -242 812.6 -158.7 791.4C-93.7 775 -31 757.1 26.9 727.3C71.2 704.4 103.5 670 128.1 627.2C138.9 608.3 148.2 588 157 566.7C174.3 524.2 189.5 479.6 211.3 441.5C236.1 398.1 270.3 363.6 323.4 351.9C338 348.7 352.2 347.2 366.6 347.8C427 350.4 482.9 388 546 412.2C574.3 423.1 603.9 430.3 632 433.5C663.6 437.1 694 435.5 720.8 428.9C772 416.2 811.4 387 826.1 350.1C838.2 319.6 832.5 288 834.4 252.8C838.2 180.2 867.2 87.1 916 3.05176e-05C929.5 -24.3 944.7 -48 961.4 -70.6C1037.4 -173.5 1146.3 -251.7 1255.6 -280.1" stroke="#D4E8F7" stroke-miterlimit="10"/>
<path d="M-823.4 854.9C-790.3 784.4 -717 738.7 -640.5 726.4C-607.5 721.1 -573.7 721.3 -540.3 726.5C-497 733.1 -454.9 747.1 -413.2 760.6C-328.2 788.1 -245.6 812.8 -161.6 793.4C-96 778.4 -32.2 762.8 27 734.8C72.6 713.2 105.6 679.4 130.9 636.9C142 618.2 151.6 597.9 160.6 576.7C178.4 534.3 194.1 489.6 216.5 451.8C242 408.7 276.9 375.1 331.4 365.1C346.3 362.4 360.6 361.5 375 362.7C435.6 367.8 490.6 407.8 553.7 432C582.1 442.9 611.8 449.7 640.3 452C672.1 454.6 702.8 451.5 729.5 443C780.5 426.8 818.3 392.2 829.8 351.8C839.5 317.9 830.6 284.1 829.5 246.7C827.4 169.5 852.8 72.3 900.6 -17.4C913.9 -42.4 928.9 -66.7 945.8 -89.9C1022.4 -195.1 1135.7 -272.6 1249.4 -296.4" stroke="#D4E8F7" stroke-miterlimit="10"/>
<path d="M-827.9 847.4C-793.4 777.3 -720.4 731.7 -643.8 719.1C-610.8 713.7 -576.8 713.9 -543.4 719.2C-500.1 726.1 -458 740.6 -416.4 755.1C-331.6 784.5 -249.2 812.8 -164.4 795.4C-98.2 781.9 -33.4 768.5 27.2 742.3C74.2 722 107.9 688.8 133.8 646.5C145.2 627.9 155.1 607.8 164.3 586.5C182.6 544.2 198.9 499.4 221.8 462C248 419.2 283.7 386.4 339.5 378.3C354.6 376.1 369.2 375.8 383.6 377.6C444.5 385.2 498.6 427.6 561.6 451.9C590.1 462.9 620 469.2 648.7 470.7C680.8 472.3 711.8 467.8 738.4 457.4C789.2 437.6 825.3 397.8 833.8 353.8C841 316.5 828.9 280.5 825 240.9C816.9 159 838.8 57.6999 885.6 -34.5001C898.6 -60.2001 913.6 -85.2 930.6 -108.8C1007.8 -216.3 1125.4 -293 1243.5 -312.3" stroke="#D4E8F7" stroke-miterlimit="10"/>
<path d="M-832.4 840C-796.5 770.3 -723.8 724.7 -647 711.9C-613.9 706.4 -579.9 706.5 -546.4 712C-503 719.1 -461 734.3 -419.5 749.7C-334.9 781.1 -252.6 813 -167.1 797.4C-100.2 785.3 -34.5 774.2 27.5 749.8C75.8 730.8 110.2 698.1 136.8 656.2C148.5 637.8 158.7 617.7 168.2 596.4C187 554.1 203.8 509.3 227.3 472.2C254.2 429.8 290.6 397.7 347.8 391.4C363.1 389.7 377.9 390 392.3 392.4C453.4 402.6 506.6 447.2 569.6 471.6C598.2 482.6 628.3 488.5 657.2 489.1C689.6 489.8 720.8 483.7 747.4 471.4C798 448 832.4 403.1 837.9 355.4C842.5 314.9 827.2 276.5 820.5 234.6C806.3 148 824.8 42.7 870.6 -52.1C883.3 -78.5 898.3 -104.1 915.4 -128.2C993.1 -238 1115 -314 1237.6 -328.8" stroke="#D4E8F7" stroke-miterlimit="10"/>
<path d="M-836.9 832.5C-799.6 763.2 -727.2 717.6 -650.3 704.5C-617.2 698.9 -583.1 698.9 -549.5 704.6C-506.1 712 -464.2 727.7 -422.7 744.1C-338.2 777.5 -256.2 813 -169.9 799.2C-102.4 788.5 -35.6 779.8 27.7 757.1C77.2999 739.4 112.4 707.3 139.7 665.7C151.6 647.4 162.1 627.4 171.9 606.1C191.3 563.9 208.5 519.1 232.6 482.2C260.2 440.1 297.3 408.9 355.9 404.3C371.5 403.1 386.4 404.1 400.9 407C462.2 419.7 514.6 466.7 577.5 491.1C606.1 502.2 636.5 507.6 665.6 507.3C698.3 507 729.7 499.5 756.3 485.3C806.7 458.3 839.4 408.3 841.8 356.9C843.8 313.1 825.4 272.4 815.9 228.3C795.9 137.1 810.6 27.7 855.5 -69.7C868 -96.9 882.8 -123.1 900.1 -147.6C978.4 -259.5 1104.6 -334.7 1231.6 -345" stroke="#D4E8F7" stroke-miterlimit="10"/>
<path d="M-841.4 825C-802.7 756.2 -730.6 710.5 -653.6 697.2C-620.4 691.5 -586.2 691.5 -552.6 697.4C-509.2 705 -467.3 721.3 -425.9 738.7C-341.6 774 -259.7 813.2 -172.7 801.2C-104.6 791.9 -36.8 785.5 27.9 764.7C78.8 748.3 114.6 716.8 142.6 675.4C154.8 657.3 165.6 637.3 175.7 616C195.6 573.9 213.3 529 238.1 492.5C266.4 450.8 304.2 420.2 364.2 417.6C380 416.9 395.1 418.5 409.6 422.1C471.2 437.3 522.6 486.7 585.5 511.1C614.2 522.3 644.8 527.2 674.2 526C707.2 524.7 738.9 515.8 765.4 499.7C815.6 469.2 846.6 414.1 846 358.9C845.5 311.9 824 268.8 811.5 222.4C785.6 126.5 796.7 13.0001 840.5 -86.7999C852.7 -114.7 867.5 -141.5 884.9 -166.6C964 -280.9 1094.5 -355.4 1225.9 -361.2" stroke="#D4E8F7" stroke-miterlimit="10"/>
<path d="M-845.9 817.5C-805.9 749.1 -734 703.5 -656.9 689.9C-623.7 684.1 -589.4 684 -555.7 690.1C-512.3 697.9 -470.4 714.9 -429.1 733.2C-345 770.5 -263.2 813.3 -175.6 803.2C-106.9 795.3 -38.1 791.2 28 772.2C80.2 757.1 116.7 726.2 145.3 685.1C157.8 667.1 168.9 647.2 179.2 625.9C199.6 583.8 217.8 538.9 243.2 502.7C272.2 461.3 310.8 431.5 372.1 430.7C388.2 430.5 403.4 432.7 418 436.9C479.8 454.6 530.4 506.3 593.2 530.8C622 542 652.8 546.5 682.4 544.5C715.7 542.2 747.7 531.9 774 513.8C824.1 479.8 853.3 419.7 849.7 360.6C846.6 310.5 822 264.9 806.7 216.3C774.9 115.7 782.4 -1.80001 825.2 -104.2C837.1 -132.8 851.9 -160.2 869.3 -185.8C949 -302.4 1083.9 -376.1 1219.7 -377.5" stroke="#D4E8F7" stroke-miterlimit="10"/>
<path d="M-850.5 810.1C-809.1 742.1 -737.5 696.5 -660.2 682.7C-626.9 676.8 -592.5 676.6 -558.8 682.9C-515.3 691 -473.6 708.5 -432.4 727.8C-348.4 767.1 -266.9 813.4 -178.5 805.2C-109.2 798.8 -39.3 797.1 28 779.7C81.5 766.1 118.7 735.6 148 694.7C160.8 676.8 172.1 657 182.7 635.7C203.6 593.7 222.3 548.7 248.3 512.8C278 471.7 317.3 442.7 380 443.7C396.3 444 411.7 446.8 426.3 451.6C488.3 471.8 538 525.9 600.8 550.5C629.6 561.8 660.6 565.8 690.5 562.9C724.1 559.7 756.3 547.8 782.6 527.9C832.5 490.3 860 425.3 853.3 362.3C847.6 309 819.9 261.1 801.7 210.2C764 105 767.9 -16.6001 809.7 -121.6C821.4 -150.9 836 -179 853.6 -205C933.9 -323.9 1073.1 -396.8 1213.3 -393.7" stroke="#D4E8F7" stroke-miterlimit="10"/>
<path d="M-855 802.6C-793.7 705.9 -674.2 654.1 -561.9 675.6C-429.7 700.9 -314.1 816.6 -181.3 807.1C-111.4 802.1 -40.5 802.7 28.2 787.1C106.9 769.3 150.8 715.5 186.5 645.5C232.4 555.6 268.2 451.4 388.2 456.8C475 460.7 531.3 539.8 608.8 570.2C670.2 594.3 742 583.2 791.7 542C841.4 500.8 867.3 430.9 857.5 364C849.3 307.6 818.5 257.2 797.4 204C741.6 63.4 757.6 -103.1 838.6 -224.3C919.6 -345.5 1063 -417.7 1207.7 -410" stroke="#D4E8F7" stroke-miterlimit="10"/>
<path d="M-847.9 816.4C-785.7 727.3 -666.9 679.1 -555.4 698.8C-499.6 708.6 -446.7 733.5 -394.5 757.6C-341 782.4 -288.3 806.5 -233.3 813.5C-215.6 815.8 -197.6 816.3 -179.4 814.4C-110.9 807.3 -41.8 805.6 26.6 789.5C104.1 771.3 148.9 719.7 185.8 653.6C194.3 638.4 202.5 622.9 210.9 607.6C235.5 562.6 261.7 520 303.2 496.3C326.4 483.1 354.3 475.6 389 476.8C474.7 479.7 530.7 552 605.8 578C615.8 581.4 626 583.9 636.3 585.5C687.6 593.3 741.9 578.5 781.5 543.7C829.1 501.9 853.7 432.7 844.8 366.5C837.3 310.4 808.4 259.7 789 206.5C755.5 114.7 751.7 12.4 775.8 -80.6C788.8 -130.3 809.7 -177.2 838.3 -218.6C890.4 -294.2 967.1 -350.1 1053.2 -379.6C1102.7 -396.6 1155.3 -404.6 1208 -402.3" stroke="#D4E8F7" stroke-miterlimit="10"/>
<path d="M-840.8 830.3C-777.7 748.7 -659.6 704.2 -548.9 722.2C-493.3 731.2 -440.6 753.8 -388.9 775.2C-335.9 797.2 -284.3 818.1 -230.2 822.9C-212.8 824.5 -195.2 824.3 -177.4 821.9C-110.4 812.8 -42.9 808.8 25.1 792C101.5 773.4 147 723.8 185.2 661.7C194 647.4 202.6 632.9 211.2 618.6C236.6 576.6 263.1 537.2 304.6 515.4C327.9 503.2 355.6 496.1 389.7 496.9C474.3 498.8 530.1 564.4 602.8 586C612.5 588.8 622.3 590.8 632.3 591.9C681.7 597.2 733.6 580.9 771.4 545.7C816.8 503.3 840.3 434.8 832.1 369.2C825.2 313.4 798.4 262.5 780.7 209.2C750.1 117.4 748.4 15.5 773.8 -76.4C787.6 -125.7 809.2 -172 838.2 -212.7C891.1 -287 967.9 -341.7 1054.1 -371.1C1103.5 -388 1155.9 -396.2 1208.5 -394.4" stroke="#D4E8F7" stroke-miterlimit="10"/>
<path d="M-833.8 844.2C-769.8 770.2 -652.4 729.2 -542.4 745.5C-487.1 753.6 -434.6 774 -383.4 792.8C-330.9 812 -280.3 829.8 -227.3 832.3C-210.2 833.1 -193.1 832.3 -175.6 829.4C-110 818.2 -44.2999 811.8 23.3 794.5C98.5 775.3 144.9 728 184.2 669.8C193.3 656.4 202.2 642.9 211.1 629.6C237.3 590.7 264.2 554.4 305.6 534.5C329 523.2 356.6 516.6 390.1 517C473.6 517.8 529.1 576.9 599.4 593.9C608.7 596.2 618.3 597.5 627.8 598.1C675.3 601 724.7 583.2 760.7 547.4C804 504.4 826.3 436.6 818.9 371.6C812.7 316 787.8 265 771.8 211.6C744.1 119.7 744.2 18.4 771.1 -72.4C785.6 -121.4 808 -167 837.4 -207C891.1 -280.1 968 -333.5 1054.4 -362.9C1103.7 -379.7 1156 -388 1208.4 -386.7" stroke="#D4E8F7" stroke-miterlimit="10"/>
<path d="M-826.7 858.1C-761.8 791.7 -645.1 754.3 -535.9 768.8C-480.8 776 -428.6 794.3 -377.9 810.3C-326 826.8 -276.3 841.3 -224.3 841.5C-207.6 841.6 -190.8 840.2 -173.7 836.7C-109.6 823.6 -45.5 814.7 21.7 796.9C95.7 777.3 143 732.1 183.5 677.8C192.9 665.3 202.1 652.8 211.3 640.6C238.3 604.7 265.6 571.6 306.9 553.5C330.4 543.2 357.9 537.2 390.8 537C473.2 536.6 528.5 589.1 596.3 601.7C605.3 603.4 614.5 604.2 623.7 604.3C669.3 604.7 716.3 585.4 750.5 549.2C791.6 505.6 812.6 438.5 806.1 374.2C800.5 318.9 777.7 267.6 763.4 214.1C738.6 122.2 740.7 21.2999 768.9 -68.3C784.2 -117 807.2 -161.9 837.1 -201.3C891.6 -273.1 968.7 -325.3 1055.1 -354.6C1104.3 -371.3 1156.4 -379.8 1208.7 -379" stroke="#D4E8F7" stroke-miterlimit="10"/>
<path d="M-819.6 872C-753.7 813.1 -637.9 779.4 -529.4 792.1C-474.6 798.4 -422.5 814.5 -372.3 827.8C-320.9 841.5 -272.3 852.9 -221.2 850.8C-204.8 850.2 -188.4 848.1 -171.8 844.1C-109.1 829 -46.8 817.7 20 799.3C92.8 779.2 141 736.1 182.7 685.8C192.4 674.1 202 662.7 211.4 651.5C239.1 618.6 266.8 588.8 308.2 572.5C331.8 563.2 359.1 557.4 391.5 557C472.8 556 527.8 601.4 593.2 609.6C601.9 610.7 610.7 610.9 619.5 610.5C663.2 608.4 707.8 587.7 740.2 551C779.2 506.7 799 440.4 793.3 376.7C788.4 321.7 767.5 270.2 755 216.6C733.2 124.7 737.2 24.3 766.7 -64.3C782.8 -112.7 806.5 -156.9 836.8 -195.6C892 -266.1 969.3 -317 1055.9 -346.3C1105.1 -362.9 1156.9 -371.6 1209 -371.3" stroke="#D4E8F7" stroke-miterlimit="10"/>
<path d="M-812.6 885.8C-745.8 834.5 -630.7 804.3 -522.9 815.4C-468.3 820.8 -416.5 834.7 -366.8 845.4C-315.9 856.4 -268.3 864.5 -218.3 860.2C-202.2 858.8 -186.2 856.2 -170 851.6C-108.8 834.4 -48.1 820.8 18.3 801.8C89.9 781.3 139 740.3 181.9 693.9C191.9 683.1 201.8 672.7 211.5 662.5C240 632.7 268.1 606 309.4 591.6C333.2 583.3 360.3 577.9 392.1 577.1C472.3 575.1 527.1 613.8 590 617.5C598.4 618 606.8 617.7 615.2 616.8C657 612.2 699.2 590.1 729.8 552.9C766.6 508 785.2 442.5 780.3 379.3C776 324.6 757.1 272.8 746.3 219.2C727.4 127.3 733.4 27.3999 764.2 -60.1001C781.1 -108.1 805.5 -151.7 836.3 -189.7C892.3 -259 969.7 -308.6 1056.4 -337.8C1105.5 -354.4 1157.2 -363.2 1209.1 -363.3" stroke="#D4E8F7" stroke-miterlimit="10"/>
<path d="M-805.5 899.7C-737.8 855.9 -623.4 829.4 -516.4 838.7C-462.1 843.2 -410.4 854.9 -361.3 862.9C-310.9 871.1 -264.4 876 -215.3 869.5C-199.6 867.4 -183.9 864.1 -168.1 859.1C-108.3 839.9 -49.4 823.9 16.6 804.3C87.1 783.4 137 744.5 181.1 702.1C191.4 692.2 201.6 682.7 211.6 673.6C240.8 646.8 269.4 623.4 310.6 610.8C334.5 603.5 361.5 598.5 392.6 597.3C471.7 594.3 526.3 626.3 586.7 625.5C594.8 625.4 602.9 624.5 610.9 623.1C650.7 616 690.6 592.4 719.4 554.8C754.1 509.3 771.5 444.5 767.4 382C763.8 327.6 747 275.6 737.8 221.9C722 129.9 729.9 30.5 761.9 -55.8C779.6 -103.5 804.6 -146.4 835.9 -183.8C892.7 -251.8 970.3 -300.2 1057.1 -329.4C1106.1 -345.9 1157.6 -354.8 1209.4 -355.5" stroke="#D4E8F7" stroke-miterlimit="10"/>
<path d="M-798.4 913.6C-729.8 877.4 -616.1 854.7 -509.9 862C-455.8 865.7 -404.4 875.2 -355.7 880.4C-305.9 885.8 -260.3 887.5 -212.2 878.8C-196.8 876 -181.5 872.1 -166.1 866.5C-107.7 845.3 -50.5 827 15.1 806.8C84.4 785.5 135.3 748.7 180.4 710.2C191 701.2 201.5 692.7 211.8 684.6C241.7 660.9 270.8 640.6 311.9 629.8C335.9 623.5 362.7 618.8 393.3 617.3C471.3 613.3 525.7 638.6 583.6 633.4C591.3 632.7 599.1 631.3 606.7 629.4C644.6 619.8 682 594.8 709.1 556.6C741.6 510.5 757.9 446.4 754.5 384.5C751.5 330.3 736.7 278.2 729.2 224.4C716.3 132.4 726.2 33.5 759.6 -51.8C778.1 -99.2001 803.8 -141.4 835.5 -178.1C893.1 -244.9 970.8 -292 1057.7 -321.1C1106.6 -337.5 1157.9 -346.6 1209.6 -347.8" stroke="#D4E8F7" stroke-miterlimit="10"/>
<path d="M-791.4 927.5C-721.9 898.8 -609 879.8 -503.4 885.3C-449.6 888.1 -398.3 895.4 -350.2 897.9C-300.9 900.6 -256.4 899.1 -209.3 888.1C-194.2 884.6 -179.3 880 -164.3 873.9C-107.4 850.6 -51.9 830 13.4 809.2C81.5 787.5 133.3 752.7 179.6 718.2C190.5 710.1 201.4 702.6 211.9 695.5C242.5 674.8 272.1 657.8 313.2 648.8C337.3 643.5 364 639.2 394 637.3C470.9 632.3 525.1 650.8 580.6 641.2C588 639.9 595.4 637.9 602.7 635.5C638.7 623.4 673.7 596.9 699 558.3C729.4 511.6 744.4 448.2 741.9 387C739.6 333.1 726.8 280.7 721 226.8C711 134.8 723 36.4 757.6 -47.8C776.9 -94.8 803.3 -136.4 835.4 -172.4C893.7 -237.9 971.6 -283.8 1058.7 -312.8C1107.5 -329.1 1158.7 -338.4 1210.2 -340" stroke="#D4E8F7" stroke-miterlimit="10"/>
<path d="M-784.3 941.4C-713.9 920.3 -601.7 904.8 -496.9 908.6C-443.3 910.5 -392.3 915.6 -344.7 915.5C-295.9 915.4 -252.4 910.8 -206.3 897.4C-191.6 893.1 -177 887.9 -162.4 881.3C-106.9 856 -53.1 833.1 11.7 811.6C78.7 789.5 131.4 756.8 178.8 726.2C190 719 201.2 712.5 212 706.4C243.3 688.7 273.4 675 314.4 667.8C338.7 663.5 365.1 659.6 394.6 657.3C470.4 651.3 524.4 663.1 577.4 649C584.5 647.1 591.5 644.6 598.4 641.7C632.5 627.1 665.1 599.2 688.6 560.1C716.8 512.8 730.7 450.1 728.9 389.5C727.3 335.9 716.4 283.3 712.3 229.3C705.3 137.3 719.2 39.3 755.1 -43.7C775.3 -90.4 802.2 -131.3 834.8 -166.7C893.9 -230.9 971.9 -275.6 1059.1 -304.6C1107.8 -320.8 1158.8 -330.2 1210.1 -332.4" stroke="#D4E8F7" stroke-miterlimit="10"/>
<path d="M-777.2 955.2C-705.9 941.7 -594.4 929.8 -490.4 931.9C-437.1 933 -386.3 935.8 -339.1 933C-290.9 930.2 -248.4 922.3 -203.2 906.7C-188.8 901.7 -174.6 895.9 -160.5 888.7C-106.5 861.3 -54.3 836.1 10.1 814.1C75.9 791.6 129.6 761 178.1 734.3C189.6 728 201.1 722.5 212.2 717.4C244.2 702.8 274.8 692.3 315.7 686.8C340.1 683.5 366.4 680 395.2 677.3C469.9 670.2 523.7 675.3 574.2 656.9C581 654.4 587.7 651.3 594.1 647.9C626.3 630.8 656.5 601.5 678.1 561.9C704.2 514 716.9 452 715.9 392C715 338.7 706.1 285.9 703.7 231.8C699.6 139.8 715.6 42.3 752.7 -39.7C773.7 -86 801.3 -126.3 834.3 -161C894.2 -224 972.4 -267.4 1059.7 -296.3C1108.3 -312.4 1159.2 -322 1210.3 -324.7" stroke="#D4E8F7" stroke-miterlimit="10"/>
<path d="M-770.2 969.1C-697.9 963.1 -587.2 954.9 -483.9 955.2C-430.8 955.4 -380.2 956.1 -333.6 950.5C-285.9 944.9 -244.4 933.9 -200.3 916C-186.2 910.3 -172.4 903.8 -158.7 896.1C-106.1 866.7 -55.7 839.2 8.29999 816.5C73 793.6 127.6 765.2 177.2 742.3C189 736.9 200.8 732.4 212.2 728.3C244.9 716.7 276 709.5 316.8 705.8C341.3 703.6 367.5 700.3 395.7 697.2C469.3 689.1 522.9 687.4 570.9 664.6C577.4 661.5 583.7 657.9 589.8 654C620.1 634.4 647.8 603.6 667.7 563.5C691.6 515 703.2 453.7 702.9 394.4C702.7 341.3 695.7 288.3 695 234.2C693.8 142.2 711.9 45.2 750.2 -35.7C772 -81.7 800.3 -121.3 833.8 -155.3C894.5 -217 972.8 -259.1 1060.2 -288C1108.7 -304.1 1159.4 -313.8 1210.4 -316.9" stroke="#D4E8F7" stroke-miterlimit="10"/>
<path d="M-763.1 983C-689.9 984.6 -579.9 979.9 -477.4 978.5C-424.6 977.8 -374.2 976.3 -328.1 968.1C-280.9 959.7 -240.4 945.5 -197.3 925.4C-183.6 919 -170.1 911.8 -156.8 903.6C-105.7 872.1 -56.9 842.4 6.69998 819C70.2 795.7 125.9 769.4 176.4 750.5C188.6 746 200.6 742.5 212.3 739.5C245.7 730.9 277.4 727.1 318.1 725.1C342.8 723.9 368.7 721 396.4 717.5C469 708.4 522.3 699.9 567.8 672.7C574 669 579.9 664.8 585.6 660.4C614 638.3 639.3 606.1 657.4 565.5C679.2 516.4 689.6 455.8 690.1 397.1C690.5 344.3 685.6 291.1 686.6 236.9C688.3 144.8 708.4 48.4 748 -31.4C770.6 -77.1 799.5 -116 833.5 -149.3C894.9 -209.7 973.4 -250.6 1061 -279.4C1109.5 -295.4 1159.9 -305.3 1210.8 -308.9" stroke="#D4E8F7" stroke-miterlimit="10"/>
<path d="M-756 996.9C-681.9 1006 -572.6 1005 -470.9 1001.8C-418.3 1000.2 -368.1 996.5 -322.5 985.6C-275.8 974.5 -236.4 957.1 -194.2 934.7C-180.8 927.6 -167.7 919.7 -154.8 911C-105.1 877.4 -58.1 845.4 5.09998 821.5C67.5 797.8 124.1 773.7 175.7 758.6C188.2 755 200.5 752.5 212.5 750.5C246.6 744.8 278.8 743.3 319.4 744.1C344.2 744.6 370 741.4 397.1 737.5C468.6 727.3 521.7 712.1 564.7 680.5C570.6 676.2 576.1 671.5 581.5 666.6C608 642 630.9 608.3 647.2 567.3C666.8 517.6 676.1 457.7 677.3 399.6C678.4 347.1 675.4 293.7 678.1 239.3C682.7 147.2 704.9 51.3 745.8 -27.5C769.3 -72.8 798.8 -111.1 833.2 -143.8C895.4 -203 974.1 -242.6 1061.7 -271.4C1110.1 -287.3 1160.4 -297.3 1211.1 -301.4" stroke="#D4E8F7" stroke-miterlimit="10"/>
<path d="M-749 1010.7C-674 1027.4 -565.5 1029.7 -464.4 1025C-412.1 1022.4 -362.1 1016.7 -317 1003C-270.9 989.1 -232.4 968.6 -191.3 943.8C-178.2 935.9 -165.5 927.5 -153 918.2C-104.8 882.6 -59.4 848.3 3.39996 823.7C64.6 799.7 122.2 777.6 174.9 766.4C187.7 763.7 200.3 762.1 212.6 761.2C247.3 758.5 280.1 761.5 320.6 762.9C345.6 763.8 371.1 761.6 397.6 757.3C468 746.1 520.9 724.1 561.5 688.2C567 683.3 572.3 678 577.2 672.6C601.8 645.5 622.3 610.4 636.8 568.9C654.3 518.6 662.3 459.4 664.3 402C666.1 349.8 664.9 296.1 669.5 241.7C676.8 149.6 701.3 54.2001 743.4 -23.4999C767.7 -68.4999 797.9 -106.1 832.7 -138.1C895.7 -196 974.5 -234.4 1062.3 -263.1C1110.6 -278.9 1160.7 -289.1 1211.2 -293.7" stroke="#D4E8F7" stroke-miterlimit="10"/>
<path d="M-741.9 1024.6C-666 1048.9 -558.2 1054.8 -457.9 1048.4C-405.8 1044.9 -356.1 1037 -311.5 1020.7C-265.9 1004.1 -228.5 980.3 -188.3 953.3C-175.6 944.7 -163.3 935.6 -151.1 925.8C-104.3 888.1 -60.6 851.6 1.80002 826.3C61.9 801.9 120.4 782.1 174.2 774.6C187.3 772.8 200.2 772.4 212.8 772.3C248.2 771.9 281.5 778.9 321.9 782.1C347 784 372.4 782.1 398.3 777.5C467.6 765.2 520.2 736.4 558.4 696.2C563.6 690.7 568.5 684.9 573 679C595.7 649.4 613.8 612.8 626.5 570.9C641.8 520 648.7 461.5 651.5 404.7C654 352.7 654.8 298.9 661 244.4C671.3 152.3 697.8 57.3999 741.1 -19.3C766.3 -63.9 797 -100.9 832.3 -132.2C896 -188.8 975 -226 1062.9 -254.6C1111.1 -270.3 1161 -280.7 1211.4 -285.8" stroke="#D4E8F7" stroke-miterlimit="10"/>
<path d="M-734.8 1038.5C-658 1070.3 -550.9 1079.9 -451.4 1071.7C-399.6 1067.3 -350 1057.2 -305.9 1038.2C-260.8 1018.8 -224.3 992 -185.2 962.6C-172.8 953.3 -160.9 943.5 -149.2 933.2C-103.9 893.4 -61.8 854.7 0.100037 828.7C59 804 118.5 786.3 173.4 782.6C186.8 781.7 200 782.1 212.9 783.2C249 786.4 282.8 796.2 323.1 801C348.3 804 373.6 802.4 398.9 797.4C467.1 784 519.4 748.5 555.2 703.9C560.1 697.8 564.6 691.4 568.8 685C589.5 652.9 605.2 614.9 616.2 572.4C629.4 520.8 635.1 463.1 638.6 406.9C641.8 355.2 644.5 301.2 652.5 246.6C665.7 154.5 694.3 60.0999 738.8 -15.5001C764.8 -59.7001 796.2 -96.2 831.9 -126.8C896.4 -182.2 975.5 -218.1 1063.6 -246.6C1111.7 -262.2 1161.5 -272.7 1211.7 -278.3" stroke="#D4E8F7" stroke-miterlimit="10"/>
<path d="M-727.8 1052.4C-650.1 1091.8 -543.7 1104.9 -444.9 1095C-393.3 1089.7 -344 1077.4 -300.4 1055.7C-255.9 1033.6 -220.4 1003.5 -182.2 971.9C-170.1 961.9 -158.6 951.4 -147.3 940.6C-103.6 898.6 -62.9999 857.9 -1.49994 831.2C56.3001 806.1 116.7 789.9 172.6 790.8C186.4 791 199.9 792.1 213.1 794.3C249.9 800.4 284.2 813.7 324.5 820.2C349.8 824.3 374.9 822.9 399.7 817.6C466.8 803.2 518.9 760.9 552.2 712C556.8 705.3 560.9 698.4 564.7 691.5C583.5 656.9 596.8 617.5 606 574.5C617 522.3 621.7 465.3 625.9 409.8C629.8 358.4 634.5 304.1 644.2 249.5C660.3 157.3 691.1 63.5001 736.7 -10.9999C763.6 -54.8999 795.6 -90.7 831.7 -120.6C897 -174.7 976.3 -209.4 1064.4 -237.9C1112.4 -253.4 1162 -264.1 1212.1 -270.2" stroke="#D4E8F7" stroke-miterlimit="10"/>
<path d="M-720.7 1066.3C-642 1113.2 -536.4 1130 -438.4 1118.3C-387.1 1112.1 -337.9 1097.7 -294.8 1073.3C-250.8 1048.4 -216.3 1015.2 -179.2 981.3C-167.4 970.6 -156.3 959.5 -145.4 948.1C-103.1 904.1 -64.2 861.1 -3.20001 833.7C53.5 808.3 114.8 795 171.8 798.9C185.9 799.9 199.7 802.1 213.2 805.3C250.8 814.3 285.4 831.1 325.7 839.3C351.1 844.5 376.1 843.4 400.2 837.7C466.2 822.2 518 773.2 548.9 719.9C553.2 712.6 557 705.1 560.4 697.7C577.3 660.6 588.2 619.7 595.5 576.3C604.4 523.5 607.9 467.2 612.8 412.3C617.5 361.2 624 306.7 635.4 251.9C654.4 159.7 687.4 66.5 734.1 -7.09998C761.9 -50.6 794.4 -85.8 831.1 -115C897.2 -167.9 976.6 -201.2 1064.9 -229.7C1112.8 -245.2 1162.3 -256 1212.1 -262.6" stroke="#D4E8F7" stroke-miterlimit="10"/>
<path d="M-713.6 1080.1C-634 1134.6 -529.2 1155 -431.9 1141.6C-380.8 1134.5 -331.9 1117.9 -289.3 1090.8C-245.8 1063.1 -212.3 1026.8 -176.2 990.5C-164.8 979.1 -154 967.3 -143.5 955.5C-102.7 909.4 -65.4 864.3 -4.79999 836.1C50.8 810.4 112.9 799.3 171.1 806.9C185.5 808.8 199.6 811.9 213.4 816.2C251.7 828.1 286.8 848.4 327 858.3C352.6 864.6 377.3 863.7 400.9 857.7C465.7 841 517.2 785.3 545.8 727.7C549.7 719.8 553.2 711.8 556.2 703.9C571.2 664.3 579.7 622 585.2 578.1C591.9 524.7 594.3 469.1 600 414.8C605.4 364 613.9 309.3 627 254.4C648.9 162.2 684 69.5 732 -3.00005C760.7 -46.1 793.8 -80.7 830.9 -109.3C897.7 -160.9 977.3 -193 1065.7 -221.4C1113.6 -236.8 1162.8 -247.8 1212.5 -254.8" stroke="#D4E8F7" stroke-miterlimit="10"/>
<path d="M-706.5 1094C-583.6 1188.7 -405.7 1194.7 -283.7 1108.3C-240.8 1077.9 -208.3 1038.3 -173.1 999.8C-118.8 940.3 -82 874.7 -6.40002 838.5C61.5 806 142.8 800.1 213.5 827.2C252.5 842.1 288.1 865.8 328.2 877.3C434.8 907.8 523.5 801.6 552 710.1C581 616.9 575.4 515.1 587.2 417.3C603.5 281.8 651.1 115 729.7 1.10004C812.3 -118.7 928.8 -169 1066.3 -213.1C1114.1 -228.4 1163.1 -239.5 1212.7 -247.1" stroke="#D4E8F7" stroke-miterlimit="10"/>
</g>
<mask id="mask2_4_966" style="mask-type:luminance" maskUnits="userSpaceOnUse" x="0" y="0" width="1200" height="800">
<path d="M1200 0H0V800H1200V0Z" fill="white"/>
</mask>
<g mask="url(#mask2_4_966)">
<path d="M1399.7 478.4C1372.2 428.9 1340.7 380.9 1299 342.6C1257.3 304.3 1204.5 276.1 1148.1 272C1091.7 267.9 1032 290.5 999 336.5C980.8 361.8 971.6 392.2 960 421.1C948.4 450 933.2 479.1 907.4 496.5C881.6 513.9 842.8 515.4 821.9 492.3C799.1 467 805.9 425 784.7 398.3C760.9 368.3 715.2 371.8 677.4 378.1C639.6 384.4 594 388.2 569.9 358.5C550.6 334.7 555.7 297 576.6 274.6C597.5 252.2 630.3 243.9 660.8 246.8C691.3 249.7 720 262.3 747.1 276.5C781.7 294.6 822.1 316.1 857.3 299.4C876.8 290.2 889.6 270.8 897.4 250.7C905.2 230.6 909 209.2 916 188.8C938.4 123.7 996.2 72.1 1063.4 57.1C1114.5 45.7 1170.1 54 1217.6 32.1C1255.9 14.5 1283.2 -20.2 1308.9 -53.6L1399.7 478.4Z" fill="#2B3640"/>
</g>
<mask id="mask3_4_966" style="mask-type:luminance" maskUnits="userSpaceOnUse" x="0" y="0" width="1200" height="800">
<path d="M1200 0H0V800H1200V0Z" fill="white"/>
</mask>
<g mask="url(#mask3_4_966)">
<path d="M-209.4 900.8C-114.6 915.8 -14.3 892.2 63.8 836.4C126.9 791.4 178.2 725.4 252.4 703C290.9 691.4 331.9 692.9 372 695.2C412.1 697.5 452.8 700.6 492 692C531.2 683.4 569.6 661 587.2 624.9C601.2 596.2 600.2 560.6 584.5 532.7C568.8 504.8 539 485.4 507.2 482.4C460 478 416.9 506.9 378.8 535C340.7 563.1 298.7 593 251.4 591C184.9 588.2 135.6 523.8 70 512.6C12.7 502.8 -42.5 535.3 -91.6 566.4L-209.4 900.8Z" fill="#2B3640"/>
</g>
<mask id="mask4_4_966" style="mask-type:luminance" maskUnits="userSpaceOnUse" x="0" y="0" width="1200" height="800">
<path d="M1200 0H0V800H1200V0Z" fill="white"/>
</mask>
<g mask="url(#mask4_4_966)">
<path d="M-42.4 755.2C-33.8 706.8 15.3 677.9 62.5 672.3C109.7 666.7 157.9 677.7 205.7 677.7C333.7 677.6 454.4 589.5 496.3 465.5C509.7 425.8 515.6 383.4 528.7 343.5C541.8 303.7 564 264.8 600.1 245.9C652 218.6 717 239.6 769.4 270.1C821.8 300.6 870.8 341 928.8 355C1005 373.4 1084.3 341.7 1142.6 290.8C1200.9 239.9 1242.1 171.4 1282.3 104" stroke="#FF4DC4" stroke-miterlimit="10"/>
<path d="M-45.3 750.5C-35.8 702.3 13.1 673.5 60.4 667.7C80.9 665.2 101.5 665.8 122.2 667.5C149.4 669.7 176.6 673.6 203.6 674.2C258.7 675.4 312.5 661.3 359.7 633.9C396.2 612.7 428.6 584.8 454.5 551.3C473 527.5 487.8 500.7 498.1 471.6C502.7 458.6 506.5 445.2 510 431.7C517.1 404.3 522.9 376.5 532.1 350C542.5 319.9 558.3 290.8 581.7 271C589 264.8 596.9 259.5 605.6 255.3C642 237.8 684.1 243.8 724.4 258.7C741.8 265.1 758.9 273.2 774.8 281.8C792.6 291.5 810 301.9 827.3 311.9C861.3 331.5 895 349.6 931.4 356.1C955.1 360.4 978.4 359.2 1001.6 354.1C1048.5 343.6 1094.7 315.6 1133.2 279.8C1143.7 270 1153.8 259.6 1163.6 248.9C1206.9 201.1 1243.1 145.9 1278.8 93.7" stroke="#F552C5" stroke-miterlimit="10"/>
<path d="M-48.1 745.8C-37.7 697.9 11 669.1 58.4 663.1C78.9 660.5 99.6 661.1 120.4 662.9C147.6 665.3 174.7 669.6 201.8 670.8C256.8 673.3 310.4 661.4 358.1 635.2C395 614.9 427.9 588.3 454.8 556.1C474 533 489.3 506.6 500.1 477.7C504.9 464.8 508.9 451.4 512.5 437.9C519.9 410.6 526 382.7 535.6 356.4C546.5 326.5 562.8 298.1 587 279.3C594.5 273.5 602.5 268.5 611.2 264.7C647.8 248.8 689.3 256.3 729.5 271.2C747 277.7 764.2 285.4 780.2 293.5C798.2 302.5 815.8 312.1 833 320.8C866.9 338.1 899.6 353.4 933.9 357.2C956.1 359.7 977.4 356.8 998.7 350.2C1041.9 336.7 1085.8 306.1 1123.6 268.8C1134 258.5 1144 247.8 1153.8 236.8C1197.5 187.6 1236.4 132.8 1274.9 83.5" stroke="#EB57C7" stroke-miterlimit="10"/>
<path d="M-51 741C-39.7 693.4 8.69995 664.5 56.2 658.4C76.7 655.8 97.5 656.3 118.3 658.2C145.5 660.7 172.6 665.4 199.6 667.2C254.5 670.9 308 661.4 356.2 636.3C393.4 616.9 427 591.7 454.8 560.7C474.8 538.4 490.6 512.4 501.8 483.7C506.8 470.9 510.9 457.6 514.8 444.1C522.5 416.8 529 388.9 538.9 362.8C550.2 333.1 567.1 305.4 592 287.5C599.7 282 607.7 277.4 616.5 274C653.2 259.7 694.2 268.7 734.4 283.6C751.9 290.1 769.2 297.6 785.5 305.1C803.7 313.5 821.4 322 838.6 329.7C872.4 344.7 904.3 357.2 936.4 358.2C957.2 358.9 976.3 354.3 995.7 346.3C1035.2 330 1076.8 296.7 1113.9 257.7C1124.1 247 1134.1 235.8 1144 224.5C1188.1 173.8 1229.8 119.5 1271 73.1" stroke="#E15DC8" stroke-miterlimit="10"/>
<path d="M-53.9 736.3C-41.7 688.9 6.49998 660.1 54.1 653.8C74.7 651.1 95.5 651.6 116.3 653.7C143.5 656.4 170.6 661.4 197.5 663.9C252.3 668.8 305.7 661.6 354.3 637.7C391.9 619.2 426.1 595.4 454.8 565.6C475.6 544.1 491.9 518.5 503.5 490C508.7 477.2 513 464 517 450.5C525 423.3 531.8 395.3 542.2 369.4C554 340 571.3 312.8 597.1 296C604.9 290.9 613.1 286.6 621.8 283.6C658.7 270.9 699.1 281.4 739.2 296.4C756.7 303 774.2 310.1 790.6 317.1C808.9 324.9 826.9 332.5 844 338.9C877.7 351.5 908.8 361.3 938.7 359.6C958.1 358.5 975 352.2 992.6 342.7C1028.4 323.4 1067.6 287.6 1104.2 247C1114.2 235.8 1124.2 224.3 1134.2 212.7C1178.7 160.6 1223.1 106.8 1267.1 63.2" stroke="#D762CA" stroke-miterlimit="10"/>
<path d="M-56.7 731.6C-43.7 684.5 4.39997 655.7 52.1 649.2C72.7 646.4 93.6 646.9 114.4 649.1C141.6 651.9 168.7 657.4 195.5 660.4C250.2 666.6 303.5 661.6 352.6 638.9C390.6 621.3 425.3 598.8 455 570.3C476.6 549.5 493.3 524.4 505.4 496C510.8 483.3 515.3 470.1 519.4 456.6C527.8 429.4 534.9 401.4 545.6 375.7C557.8 346.5 575.7 320 602.3 304.1C610.3 299.3 618.5 295.4 627.3 292.8C664.3 281.7 704.2 293.6 744.3 308.7C761.9 315.3 779.5 322.2 796.1 328.6C814.6 335.8 832.7 342.4 849.8 347.7C883.4 358 913.7 365 941.4 360.5C959.5 357.6 974.1 349.6 989.9 338.6C1022 316.4 1058.9 277.9 1094.8 235.7C1104.7 224 1114.6 212.1 1124.6 200.2C1169.5 146.6 1216.6 93.3 1263.5 52.6" stroke="#CD67CB" stroke-miterlimit="10"/>
<path d="M-59.6 726.8C-45.7 680 2.2 651.1 50 644.6C70.6 641.8 91.6 642.2 112.4 644.5C139.7 647.5 166.7 653.3 193.5 656.9C248.1 664.3 301.3 661.7 350.8 640.1C389.2 623.4 424.5 602.3 455.1 575C477.5 555 494.7 530.3 507.2 502.1C512.7 489.5 517.4 476.4 521.8 462.9C530.5 435.7 537.9 407.7 549 382.2C561.6 353.2 580 327.3 607.5 312.5C615.7 308.1 624 304.5 632.8 302.3C670 292.8 709.3 306.2 749.4 321.3C767 327.9 784.8 334.5 801.5 340.4C820.2 347 838.4 352.6 855.6 356.7C889 364.7 918.8 368.9 944.1 361.7C960.9 356.9 973.3 347.2 987.2 334.9C1015.6 309.8 1050.2 268.7 1085.5 224.9C1095.2 212.8 1105.1 200.5 1115.2 188.3C1160.5 133.3 1210.4 80.4 1260 42.5" stroke="#C36CCD" stroke-miterlimit="10"/>
<path d="M-62.4 722.1C-47.6 675.6 0.0999641 646.7 47.9 640C68.6 637.1 89.6 637.5 110.5 639.9C137.8 643 164.7 649.2 191.5 653.5C246 662.2 299.1 661.8 349 641.4C387.8 625.6 423.7 605.9 455.1 579.8C478.3 560.6 496 536.3 508.9 508.3C514.6 495.8 519.5 482.7 524 469.2C533 442.1 540.7 414 552.2 388.7C565.3 359.9 584.1 334.7 612.5 320.8C620.8 316.7 629.2 313.5 638.1 311.6C675.4 303.7 714.2 318.6 754.2 333.7C771.9 340.4 789.8 346.7 806.6 352C825.5 358 843.9 362.6 861 365.6C894.3 371.3 923.4 372.5 946.3 362.8C961.9 356.2 971.9 344.8 984 331C1008.7 302.9 1040.9 259.3 1075.6 213.8C1085.2 201.2 1095 188.5 1105.2 176C1150.9 119.5 1203.5 67.2 1255.9 32.1" stroke="#B972CE" stroke-miterlimit="10"/>
<path d="M-65.3 717.4C-49.6 671.1 -2.10001 642.3 45.8 635.4C66.5 632.4 87.6 632.8 108.5 635.3C135.8 638.6 162.7 645.1 189.4 650C243.8 659.9 296.8 661.8 347.2 642.6C386.4 627.7 422.9 609.4 455.2 584.5C479.2 566 497.3 542.2 510.7 514.3C516.6 501.9 521.6 488.8 526.3 475.3C535.6 448.2 543.7 420.1 555.5 395C569 366.4 588.4 341.8 617.5 329C626 325.3 634.5 322.4 643.4 320.9C680.9 314.6 719 331 759.1 346.1C776.8 352.8 794.8 358.8 811.9 363.6C831 369 849.5 372.7 866.6 374.4C899.8 377.8 928.3 376 948.8 363.7C963.2 355.1 970.8 342.1 981.1 327C1002.1 295.9 1032 249.8 1066.1 202.7C1075.5 189.7 1085.3 176.6 1095.5 163.7C1141.6 105.8 1196.9 53.9 1252.1 21.7" stroke="#AF77CF" stroke-miterlimit="10"/>
<path d="M-68.1 712.6C-51.5 666.6 -4.20001 637.7 43.8 630.7C64.5 627.7 85.6 628 106.6 630.6C133.9 634 160.8 641 187.4 646.5C241.7 657.7 294.5 661.9 345.4 643.8C385 629.8 422.1 612.9 455.3 589.2C480.1 571.5 498.7 548.1 512.5 520.4C518.6 508.1 523.8 495.1 528.7 481.6C538.4 454.6 546.7 426.4 559 401.5C573 373.1 592.8 349.1 622.8 337.4C631.4 334 640 331.6 649 330.4C686.6 325.7 724.2 343.6 764.3 358.7C782.1 365.4 800.2 371.2 817.4 375.4C836.7 380.1 855.3 382.9 872.4 383.5C905.4 384.6 933.4 379.6 951.5 365C964.7 354.4 969.9 339.9 978.4 323.3C995.7 289.3 1023.3 240.5 1056.7 191.9C1065.9 178.4 1075.7 164.9 1086 151.8C1132.5 92.4999 1190.5 41 1248.5 11.7" stroke="#A57CD1" stroke-miterlimit="10"/>
<path d="M-71 707.9C-53.6 662.2 -6.40005 633.3 41.7 626.1C62.4 623 83.6 623.3 104.6 626.1C131.9 629.7 158.8 637 185.4 643.1C239.6 655.5 292.3 662 343.7 645.1C383.7 632 421.5 616.5 455.5 594C481.1 577.1 500.2 554.1 514.4 526.6C520.7 514.4 526.1 501.4 531.1 487.9C541.1 460.9 549.8 432.7 562.4 408C576.8 379.9 597.1 356.4 628 345.7C636.8 342.7 645.5 340.6 654.5 339.8C692.3 336.7 729.3 356 769.3 371.2C787.1 378 805.4 383.4 822.7 387.1C842.1 391.2 861 393 878 392.4C910.9 391.2 938.3 382.9 954 366C965.9 353.2 968.9 337.3 975.5 319.3C989.1 282.3 1014.4 231 1047.1 180.7C1056.2 166.7 1065.9 152.9 1076.3 139.4C1123.2 78.6 1184 27.7 1244.8 1.19995" stroke="#9B81D2" stroke-miterlimit="10"/>
<path d="M-73.9 703.2C-55.6 657.7 -8.6 628.9 39.5 621.5C60.3 618.3 81.5 618.6 102.6 621.5C129.9 625.2 156.7 632.9 183.3 639.6C237.4 653.3 290 662 341.8 646.3C382.2 634.1 420.6 620 455.5 598.7C481.9 582.6 501.5 560 516.1 532.6C522.6 520.5 528.1 507.5 533.3 494C543.6 467 552.6 438.9 565.6 414.3C580.4 386.4 601.2 363.5 633 353.9C641.9 351.2 650.8 349.5 659.7 349.1C697.6 347.6 734.1 368.4 774.1 383.6C792 390.4 810.4 395.6 827.9 398.7C847.5 402.2 866.5 403.1 883.5 401.3C916.2 397.8 942.9 386.1 956.4 367.1C967 352.2 967.7 334.9 972.5 315.5C982.4 275.5 1005.3 221.7 1037.5 169.8C1046.4 155.4 1056.1 141.1 1066.5 127.4C1113.8 65.2 1177.3 14.7 1240.9 -8.90002" stroke="#9187D4" stroke-miterlimit="10"/>
<path d="M-76.7 698.4C-57.5 653.2 -10.7 624.3 37.5 616.8C58.3 613.6 79.6 613.8 100.7 616.8C128.1 620.7 154.8 628.8 181.3 636.1C235.3 651 287.8 662 340.1 647.5C380.9 636.2 419.9 623.5 455.7 603.4C482.9 588.1 502.9 565.9 518 538.7C524.6 526.7 530.4 513.8 535.7 500.3C546.3 473.4 555.6 445.2 569 420.9C584.3 393.2 605.5 370.8 638.2 362.3C647.3 359.9 656.2 358.6 665.2 358.6C703.3 358.7 739.2 381 779.2 396.3C797.1 403.1 815.6 408 833.3 410.6C853.1 413.5 872.2 413.4 889.2 410.4C921.8 404.7 947.6 389.5 958.9 368.3C968.1 351.2 966.6 332.5 969.5 311.7C975.6 268.7 996.3 212.3 1027.8 158.8C1036.5 143.9 1046.1 129.3 1056.7 115.2C1104.4 51.5 1170.6 1.49995 1237 -19.3" stroke="#878CD5" stroke-miterlimit="10"/>
<path d="M-79.6 693.7C-59.5 648.8 -12.9 619.9 35.4 612.3C56.2 609 77.6 609.2 98.7 612.3C126.1 616.3 152.8 624.8 179.2 632.7C233.1 648.8 285.5 662.2 338.2 648.8C379.3 638.4 419 627.1 455.7 608.2C483.8 593.7 504.2 571.9 519.7 544.9C526.5 533 532.5 520.1 538 506.6C549 479.7 558.6 451.5 572.4 427.4C588.1 399.9 609.8 378.1 643.3 370.7C652.5 368.7 661.6 367.7 670.6 368.1C708.8 369.8 744.2 393.6 784.1 408.9C802 415.8 820.7 420.3 838.5 422.4C858.5 424.7 877.7 423.7 894.7 419.5C927.1 411.5 952 392.9 961.3 369.6C969 350.3 965.4 330.3 966.5 308C968.9 262.1 987.3 203.1 1018.2 148C1026.8 132.6 1036.3 117.6 1046.9 103.3C1095 38.1999 1163.9 -11.3 1233.1 -29.3" stroke="#7D91D7" stroke-miterlimit="10"/>
<path d="M-82.4 689C-61.4 644.3 -15 615.5 33.4 607.7C54.3 604.3 75.7 604.5 96.8 607.7C124.2 611.9 150.9 620.7 177.3 629.3C231.1 646.7 283.4 662.3 336.6 650.1C378.1 640.6 418.5 630.8 456 613C484.9 599.3 505.8 577.9 521.7 551C528.7 539.1 534.8 526.3 540.5 512.8C551.8 486 561.7 457.7 575.9 433.8C592.1 406.5 614.2 385.2 648.6 378.9C658 377.2 667.1 376.6 676.2 377.4C714.6 380.6 749.4 406 789.3 421.3C807.3 428.2 826.1 432.5 844.1 434C864.3 435.7 883.7 433.7 900.6 428.3C932.9 418 956.8 396.1 964.1 370.6C970.2 349.1 964.6 327.7 963.9 304.1C962.5 255.2 978.7 193.7 1008.9 136.9C1017.3 121.1 1026.8 105.7 1037.5 91.0001C1086 24.4001 1157.7 -24.6 1229.7 -39.7" stroke="#7396D8" stroke-miterlimit="10"/>
<path d="M-85.3 684.2C-63.5 639.8 -17.2001 610.9 31.2 603C52.1 599.6 73.6 599.7 94.8 603.1C122.2 607.4 148.9 616.7 175.2 625.8C228.9 644.4 281 662.3 334.7 651.3C376.6 642.7 417.6 634.3 456 617.7C485.7 604.8 507 583.8 523.4 557.1C530.6 545.3 536.9 532.6 542.7 519.1C554.3 492.3 564.6 464 579.1 440.3C595.7 413.2 618.2 392.5 653.6 387.3C663.2 385.9 672.4 385.7 681.5 386.9C720 391.7 754.3 418.5 794.1 433.9C812.1 440.9 831.1 444.8 849.2 445.8C869.5 446.8 889.1 444 906 437.4C938.2 424.9 961 399.7 966.4 371.8C970.9 348.2 963.3 325.4 960.8 300.3C955.7 248.4 969.5 184.4 999.2 126C1007.4 109.7 1016.9 93.8999 1027.7 78.9999C1076.6 10.9999 1151 -37.6 1225.8 -49.8" stroke="#699CD9" stroke-miterlimit="10"/>
<path d="M-88.1 679.5C-65.4 635.4 -19.3 606.5 29.2 598.4C50.1 594.9 71.7 595 92.9 598.5C120.3 603 146.9 612.6 173.2 622.3C226.8 642.2 278.8 662.4 332.9 652.5C375.2 644.8 416.9 637.8 456.1 622.4C486.6 610.4 508.4 589.7 525.2 563.2C532.6 551.5 539 538.8 545.1 525.3C557 498.6 567.6 470.2 582.5 446.7C599.5 419.9 622.5 399.6 658.8 395.6C668.5 394.5 677.8 394.7 687 396.3C725.7 402.7 759.4 431 799.2 446.4C817.3 453.4 836.4 457.1 854.7 457.5C875.2 457.9 894.9 454.1 911.8 446.3C943.8 431.5 965.6 403 969.1 372.9C972 347.2 962.3 323 958.1 296.5C949.1 241.7 960.8 175 989.8 115.1C997.9 98.4 1007.3 82.2 1018.1 66.9C1067.4 -2.60001 1144.5 -50.7 1222.1 -60" stroke="#5FA1DB" stroke-miterlimit="10"/>
<path d="M-91 674.8C-67.4 631 -21.5 602.1 27.1 593.8C48.1 590.2 69.7 590.3 90.9 593.9C118.4 598.6 144.9 608.5 171.2 618.9C224.7 640 276.6 662.5 331.2 653.8C373.9 647 416.2 641.5 456.3 627.2C487.7 616 509.9 595.7 527.1 569.4C534.7 557.8 541.3 545.1 547.5 531.6C559.7 504.9 570.6 476.5 585.9 453.2C603.4 426.6 626.9 406.8 663.9 403.9C673.8 403.1 683.2 403.7 692.4 405.6C731.2 413.6 764.4 443.4 804.2 458.8C822.3 465.8 841.5 469.2 860 469.1C880.7 468.9 900.6 464.2 917.4 455.2C949.3 438.1 970 406.5 971.5 373.9C972.8 346.2 961.1 320.4 955.1 292.5C942.4 234.8 951.8 165.5 980.1 103.9C988 86.7 997.4 70.1 1008.3 54.6C1058 -16.3 1137.8 -63.9 1218.2 -70.5" stroke="#55A6DC" stroke-miterlimit="10"/>
<path d="M-93.9 670C-69.4 626.4 -23.8 597.5 25 589.1C46 585.5 67.6 585.5 88.9 589.2C116.4 594 142.9 604.4 169.1 615.3C222.5 637.7 274.3 662.4 329.3 654.9C372.4 649 415.3 645 456.3 631.8C488.5 621.4 511.1 601.5 528.8 575.3C536.6 563.8 543.4 551.2 549.7 537.7C562.3 511 573.5 482.6 589.2 459.5C607.1 433.1 631.1 413.8 669 412.1C679 411.7 688.5 412.7 697.8 414.9C736.8 424.5 769.3 455.8 809.1 471.2C827.3 478.3 846.6 481.4 865.2 480.7C886.1 479.9 906.1 474.2 922.9 464C954.7 444.7 974.3 409.8 973.9 374.9C973.6 345.2 960 317.9 952.1 288.5C935.7 227.8 942.7 156 970.5 92.8C978.2 75.1 987.6 58.2 998.6 42.3C1048.7 -30.1 1131.3 -77.2 1214.4 -80.9" stroke="#4BABDE" stroke-miterlimit="10"/>
<path d="M-96.7 665.3C-71.4 622 -25.9 593.1 22.9 584.5C43.9 580.8 65.6 580.8 87 584.6C114.5 589.6 141 600.3 167.1 611.9C220.4 635.5 272.1 662.6 327.6 656.2C371.1 651.2 414.7 648.6 456.4 636.6C489.4 627.1 512.5 607.5 530.7 581.5C538.6 570.1 545.6 557.5 552.2 544C565.1 517.4 576.6 488.9 592.7 466C611.1 439.8 635.5 421 674.3 420.4C684.5 420.3 694.1 421.7 703.3 424.3C742.4 435.5 774.4 468.3 814.2 483.8C832.4 490.9 851.9 493.7 870.7 492.5C891.8 491.1 912 484.5 928.7 473.1C960.4 451.6 978.9 413.5 976.6 376.1C974.6 344.4 959.1 315.6 949.4 284.8C929.3 221.1 934 146.8 961.1 81.9C968.7 63.8 978 46.4 989 30.3C1039.5 -43.5 1124.8 -90.2 1210.8 -91" stroke="#41B1DF" stroke-miterlimit="10"/>
<path d="M-99.6 660.6C-73.4 617.6 -28.1 588.7 20.8 580C41.9 576.2 63.6 576.2 85 580.1C112.5 585.2 139 596.3 165 608.5C218.2 633.4 269.8 662.7 325.7 657.5C369.6 653.4 413.8 652.4 456.4 641.4C490.2 632.8 513.8 613.5 532.4 587.7C540.5 576.4 547.7 563.8 554.4 550.3C567.6 523.7 579.5 495.2 595.9 472.5C614.7 446.5 639.6 428.1 679.3 428.8C689.6 429 699.3 430.8 708.6 433.8C747.9 446.6 779.3 480.8 819.1 496.4C837.4 503.5 857 506.1 875.9 504.3C897.1 502.3 917.5 494.7 934.2 482.1C965.8 458.3 983.2 417.1 979 377.3C975.4 343.6 957.9 313.2 946.4 281C922.5 214.4 925 137.4 951.5 71C958.9 52.4 968.2 34.7 979.3 18.2C1030.2 -57.1 1118.2 -103.2 1207 -101.2" stroke="#37B6E1" stroke-miterlimit="10"/>
<path d="M-102.4 655.8C-63.6 594.6 12.1 561.8 83.1 575.4C166.8 591.4 239.9 664.7 324 658.6C368.3 655.4 413.1 655.8 456.6 646C506.4 634.8 534.2 600.7 556.8 556.4C585.8 499.5 608.5 433.5 684.5 437C739.4 439.5 775 489.5 824.1 508.8C862.9 524 908.4 517 939.9 490.9C971.4 464.8 987.7 420.6 981.6 378.3C976.4 342.6 956.9 310.7 943.6 277C908.3 188 918.4 82.6 969.7 5.90001C1021 -70.8 1111.8 -116.5 1203.3 -111.6" stroke="#2DBBE2" stroke-miterlimit="10"/>
<path d="M-98 664.6C-58.6 608.2 16.6 577.7 87.1 590.2C122.4 596.4 155.9 612.2 189 627.4C222.9 643.1 256.2 658.3 291 662.8C302.2 664.2 313.6 664.6 325.1 663.4C368.4 658.9 412.2 657.8 455.5 647.6C504.6 636.1 532.9 603.4 556.3 561.6C561.7 552 566.9 542.2 572.2 532.5C587.8 504 604.4 477 630.6 462.1C645.3 453.7 662.9 449 684.9 449.8C739.1 451.6 774.6 497.4 822.1 513.9C828.4 516.1 834.9 517.7 841.4 518.7C873.9 523.7 908.2 514.3 933.3 492.2C963.4 465.7 979 421.9 973.3 380C968.5 344.5 950.3 312.4 938 278.7C916.8 220.6 914.4 155.8 929.7 97C937.9 65.6 951.2 35.9 969.2 9.70004C1002.2 -38.1 1050.7 -73.5 1105.2 -92.2C1136.5 -102.9 1169.8 -108 1203.2 -106.6" stroke="#33B4E3" stroke-miterlimit="10"/>
<path d="M-93.5 673.4C-53.6 621.8 21.2 593.6 91.3 605C126.5 610.7 159.8 625 192.5 638.6C226 652.5 258.7 665.8 292.9 668.8C303.9 669.8 315 669.7 326.3 668.2C368.7 662.4 411.4 659.9 454.4 649.3C502.7 637.6 531.6 606.1 555.7 566.8C561.3 557.7 566.7 548.6 572.2 539.5C588.3 512.9 605.1 488 631.3 474.2C646.1 466.5 663.6 462 685.2 462.5C738.7 463.7 774.1 505.2 820 518.9C826.1 520.7 832.3 521.9 838.6 522.6C869.9 526 902.7 515.7 926.6 493.3C955.3 466.4 970.2 423.1 965 381.6C960.7 346.3 943.6 314.1 932.5 280.3C913.1 222.2 912 157.7 928.1 99.6C936.8 68.4 950.5 39.1 968.9 13.3C1002.4 -33.7 1051 -68.3 1105.6 -87C1136.9 -97.7 1170 -102.9 1203.3 -101.7" stroke="#38ADE5" stroke-miterlimit="10"/>
<path d="M-89 682.2C-48.5 635.4 25.8 609.4 95.4 619.7C130.4 624.8 163.6 637.8 196 649.6C229.2 661.8 261.3 673 294.8 674.6C305.6 675.1 316.5 674.6 327.5 672.8C369 665.7 410.6 661.6 453.4 650.7C501 638.6 530.4 608.6 555.3 571.8C561 563.3 566.7 554.8 572.3 546.4C588.9 521.8 605.9 498.8 632.1 486.2C646.9 479.1 664.4 474.8 685.6 475.1C738.4 475.6 773.6 513 818.1 523.8C824 525.2 830 526.1 836.1 526.5C866.2 528.3 897.5 517.1 920.3 494.4C947.7 467.2 961.8 424.3 957.1 383.2C953.2 348 937.4 315.7 927.3 281.9C909.8 223.8 909.8 159.6 926.8 102.2C936 71.2 950.1 42.3 968.8 17C1002.8 -29.2 1051.5 -63 1106.1 -81.7C1137.3 -92.3 1170.4 -97.6 1203.6 -96.8" stroke="#3EA6E6" stroke-miterlimit="10"/>
<path d="M-84.5 691C-43.4 648.9 30.4 625.3 99.6 634.5C134.5 639 167.5 650.6 199.6 660.8C232.5 671.2 263.9 680.4 296.8 680.6C307.4 680.7 318 679.8 328.8 677.6C369.4 669.3 409.9 663.7 452.5 652.4C499.3 640 529.3 611.4 554.9 577C560.8 569.1 566.7 561.2 572.5 553.4C589.6 530.7 606.8 509.7 633 498.3C647.9 491.8 665.3 488 686.1 487.9C738.2 487.7 773.2 520.9 816.2 528.9C821.9 530 827.7 530.5 833.5 530.5C862.4 530.7 892.1 518.6 913.8 495.6C939.8 468 953.1 425.6 949 384.8C945.5 349.8 931 317.3 922 283.5C906.3 225.3 907.6 161.5 925.5 104.7C935.2 73.9 949.8 45.5 968.7 20.5C1003.2 -24.9 1052 -58 1106.7 -76.5C1137.9 -87.1 1170.8 -92.5 1203.9 -91.9" stroke="#43A0E8" stroke-miterlimit="10"/>
<path d="M-80.1 699.7C-38.4 662.4 34.9 641.1 103.6 649.1C138.3 653.1 171.3 663.3 203 671.7C235.5 680.4 266.3 687.6 298.6 686.3C309 685.9 319.4 684.6 329.9 682.1C369.6 672.5 409 665.4 451.3 653.7C497.4 641 527.9 613.7 554.3 581.9C560.4 574.5 566.5 567.3 572.5 560.2C590 539.4 607.6 520.5 633.8 510.2C648.8 504.3 666 500.6 686.5 500.4C737.9 499.8 772.8 528.5 814.2 533.7C819.7 534.4 825.3 534.5 830.8 534.3C858.4 533 886.7 519.9 907.2 496.6C931.9 468.6 944.4 426.6 940.8 386.3C937.7 351.5 924.5 318.9 916.5 285C902.7 226.8 905.2 163.3 923.9 107.2C934.1 76.6001 949.1 48.6001 968.3 24.1001C1003.3 -20.4999 1052.2 -52.7999 1107 -71.2999C1138.1 -81.7999 1170.9 -87.3 1203.9 -87.1" stroke="#4999E9" stroke-miterlimit="10"/>
<path d="M-75.6 708.5C-33.3 676 39.5 656.9 107.7 663.9C142.2 667.3 175.1 676.1 206.5 682.9C238.7 689.8 268.8 695 300.5 692.3C310.7 691.4 320.8 689.8 331.1 686.9C369.9 676 408.2 667.4 450.3 655.4C495.6 642.4 526.7 616.5 553.8 587.1C560.1 580.3 566.4 573.7 572.5 567.2C590.5 548.3 608.3 531.4 634.5 522.3C649.5 517 666.7 513.6 686.8 513.1C737.6 511.8 772.3 536.3 812.1 538.7C817.4 539 822.7 538.8 828.1 538.2C854.5 535.3 881.3 521.3 900.7 497.7C924 469.3 935.8 427.8 932.7 387.9C930 353.3 918 320.5 911.2 286.6C899.2 228.4 903.1 165.2 922.5 109.8C933.2 79.3999 948.6 51.8 968.1 27.7C1003.5 -16.1 1052.5 -47.6001 1107.4 -66.1001C1138.5 -76.6001 1171.2 -82.2 1204.1 -82.3" stroke="#4F92EA" stroke-miterlimit="10"/>
<path d="M-71.1 717.3C-28.3 689.6 44.2 672.8 111.9 678.7C146.3 681.5 179 689 210.1 694C242 699.2 271.5 702.3 302.5 698.2C312.5 696.9 322.4 694.8 332.4 691.6C370.3 679.5 407.6 669.3 449.3 656.9C493.9 643.7 525.5 619 553.4 592.2C559.9 585.9 566.4 580 572.7 574.2C591.2 557.3 609.3 542.4 635.4 534.4C650.5 529.8 667.6 526.6 687.3 525.8C737.4 523.9 771.9 544.2 810.2 543.7C815.3 543.6 820.4 543.1 825.5 542.2C850.7 537.7 875.9 522.8 894.2 498.9C916.1 470.1 927.2 429.1 924.6 389.5C922.3 355 911.7 322.1 905.8 288.1C895.8 229.9 900.8 167 921.1 112.3C932.3 82.0999 948.1 54.9999 967.9 31.2999C1003.8 -11.7001 1052.9 -42.4 1107.9 -60.8C1138.9 -71.2 1171.5 -76.9 1204.3 -77.3" stroke="#548BEC" stroke-miterlimit="10"/>
<path d="M-66.6 726.1C-23.2 703.2 48.8 688.8 116 693.4C150.2 695.8 182.8 701.7 213.6 705.1C245.1 708.5 274 709.6 304.4 704.1C314.2 702.3 323.8 699.8 333.6 696.3C370.5 682.9 406.8 671.3 448.3 658.5C492.2 645 524.4 621.7 553 597.3C559.7 591.6 566.4 586.3 572.9 581.1C591.8 566.1 610.2 553.3 636.3 546.4C651.5 542.4 668.5 539.5 687.8 538.5C737.2 536 771.6 552 808.3 548.7C813.2 548.3 818.1 547.4 822.9 546.2C846.9 540.1 870.6 524.3 887.7 500.1C908.3 470.9 918.6 430.3 916.4 391.2C914.5 356.9 905.2 323.9 900.4 289.8C892.2 231.6 898.5 169 919.6 115C931.3 84.9999 947.6 58.2999 967.6 35.0999C1004 -7.10006 1053.2 -37.0001 1108.2 -55.4001C1139.1 -65.8001 1171.7 -71.5 1204.3 -72.3" stroke="#5A84ED" stroke-miterlimit="10"/>
<path d="M-62.2 734.9C-18.2 716.8 53.3 704.7 120.1 708.2C154.2 710 186.6 714.6 217.1 716.2C248.3 717.9 276.5 717 306.3 710C315.8 707.8 325.3 704.9 334.8 701C370.8 686.3 406 673.2 447.2 660.1C490.3 646.3 523.1 624.4 552.4 602.5C559.3 597.4 566.2 592.7 572.9 588.1C592.3 575 611 564.2 637 558.5C652.3 555.1 669.1 552.4 688.1 551.2C736.8 548 771.1 559.8 806.2 553.7C810.9 552.9 815.6 551.6 820.1 550.1C842.9 542.4 865.1 525.7 881 501.2C900.2 471.7 909.8 431.5 908.1 392.7C906.7 358.6 898.5 325.4 894.9 291.3C888.6 233.1 896.1 170.8 918.1 117.5C930.3 87.7 947 61.4 967.3 38.6C1004.2 -2.8 1053.5 -31.9 1108.6 -50.3C1139.5 -60.6 1171.9 -66.5 1204.5 -67.5" stroke="#607DEE" stroke-miterlimit="10"/>
<path d="M-57.7 743.7C-13.1 730.3 57.8999 720.6 124.2 723C158.1 724.2 190.4 727.4 220.6 727.4C251.5 727.4 279 724.4 308.2 716C317.5 713.3 326.7 710 336 705.8C371.1 689.8 405.2 675.3 446.2 661.7C488.6 647.7 522 627 552 607.7C559.1 603.1 566.2 599.1 573 595.2C592.8 584 611.9 575.3 637.8 570.7C653.2 568 669.9 565.5 688.5 564C736.5 560.2 770.7 567.6 804.2 558.8C808.7 557.6 813.1 556 817.5 554.2C839.1 545 859.7 527.3 874.6 502.5C892.5 472.6 901.3 432.9 900.1 394.5C899.1 360.6 892.2 327.3 889.6 293.1C885.1 234.9 894 172.9 916.7 120.3C929.5 90.8 946.5 64.8 967.2 42.5C1004.6 1.89997 1054 -26.4 1109.2 -44.8C1140 -55.1 1172.3 -61 1204.8 -62.4" stroke="#6576F0" stroke-miterlimit="10"/>
<path d="M-53.2 752.4C-8.00001 743.8 62.5 736.3 128.4 737.6C162.2 738.3 194.3 740.1 224.1 738.3C254.6 736.5 281.5 731.5 310.1 721.7C319.2 718.5 328.2 714.8 337.2 710.3C371.4 693 404.4 677 445.2 663.1C486.9 648.8 520.9 629.5 551.5 612.6C558.8 608.6 566 605.1 573.1 601.9C593.4 592.6 612.7 586 638.6 582.5C654.1 580.4 670.7 578.2 689 576.5C736.3 572 770.3 575.2 802.3 563.6C806.6 562 810.8 560.1 814.9 557.9C835.3 547.1 854.4 528.5 868.1 503.4C884.6 473.1 892.7 433.8 892 395.9C891.4 362.1 885.8 328.7 884.3 294.5C881.7 236.2 891.8 174.6 915.3 122.7C928.6 93.4 946.1 67.9 967 45.9C1004.9 6.10003 1054.4 -21.4 1109.6 -39.7C1140.4 -49.9 1172.6 -56 1204.9 -57.6" stroke="#6B70F1" stroke-miterlimit="10"/>
<path d="M-48.7 761.2C-3.00001 757.4 67.1 752.2 132.5 752.4C166.1 752.5 198.1 753 227.6 749.4C257.8 745.9 284.1 738.9 312 727.6C320.9 724 329.7 719.9 338.4 715C371.7 696.4 403.6 679 444.1 664.6C485 650.1 519.6 632.1 551 617.7C558.5 614.3 565.9 611.4 573.2 608.9C593.9 601.5 613.6 597 639.4 594.7C654.9 593.3 671.5 591.3 689.4 589.3C736 584.2 769.9 583.1 800.3 568.7C804.4 566.7 808.4 564.5 812.2 562C831.4 549.6 848.9 530.1 861.5 504.7C876.6 474 884 435.2 883.8 397.6C883.6 364 879.3 330.5 878.8 296.2C878 237.9 889.5 176.6 913.8 125.4C927.6 96.3001 945.5 71.2 966.7 49.7C1005.1 10.6 1054.7 -16 1110 -34.3C1140.7 -44.5 1172.8 -50.6 1205.1 -52.6" stroke="#7069F3" stroke-miterlimit="10"/>
<path d="M-44.3 770C1.99995 771 71.6 768 136.5 767.2C169.9 766.7 201.8 765.8 231 760.6C260.9 755.3 286.5 746.3 313.8 733.6C322.5 729.5 331 725 339.4 719.8C371.8 699.9 402.6 681 442.9 666.3C483.1 651.6 518.3 634.9 550.3 622.9C558 620 565.6 617.8 573 615.9C594.1 610.4 614.2 608 639.9 606.8C655.5 606 672 604.2 689.5 602C735.4 596.2 769.2 590.9 798 573.6C801.9 571.3 805.7 568.6 809.3 565.8C827.3 551.8 843.3 531.4 854.8 505.7C868.6 474.6 875.2 436.3 875.5 399.1C875.8 365.7 872.6 332 873.3 297.7C874.4 239.4 887.1 178.4 912.2 127.9C926.5 99 944.8 74.3 966.3 53.2C1005.2 14.9 1054.9 -10.9 1110.3 -29.2C1141 -39.3 1172.9 -45.6 1205.1 -47.9" stroke="#7662F4" stroke-miterlimit="10"/>
<path d="M-39.8 778.8C7.09995 784.6 76.2999 783.9 140.7 781.9C174 780.9 205.7 778.6 234.6 771.6C264.1 764.6 289.1 753.6 315.8 739.4C324.3 734.9 332.6 729.9 340.7 724.4C372.1 703.2 401.9 682.9 441.9 667.7C481.4 652.7 517.2 637.4 549.9 627.9C557.8 625.6 565.6 624 573.2 622.7C594.8 619.1 615.1 618.1 640.8 618.7C656.5 619 672.8 617 690 614.5C735.2 608.1 768.8 598.4 796.1 578.4C799.8 575.7 803.3 572.7 806.7 569.6C823.5 554 838 532.7 848.3 506.7C860.7 475.2 866.6 437.3 867.4 400.6C868.1 367.4 866.2 333.5 867.9 299.2C870.8 240.9 884.9 180.2 910.7 130.3C925.6 101.6 944.2 77.4 966 56.7C1005.4 19.2 1055.2 -5.8 1110.6 -24C1141.2 -34.1 1173.1 -40.4 1205.1 -43" stroke="#7C5BF5" stroke-miterlimit="10"/>
<path d="M-35.3 787.6C12.2 798.2 80.9 799.6 144.8 796.7C177.9 795 209.6 791.4 238.1 782.8C267.3 774 291.6 761 317.7 745.4C326 740.4 334 735.1 341.9 729.2C372.4 706.6 401.2 685 440.9 669.4C479.6 654.2 516.1 640.3 549.5 633.1C557.6 631.4 565.6 630.4 573.4 629.8C595.4 628.1 616.1 630 641.8 630.9C657.6 631.5 673.8 630 690.6 627.4C735.1 620.3 768.6 606.4 794.3 583.6C797.8 580.5 801.1 577.2 804.2 573.8C819.8 556.7 832.7 534.4 841.9 508.1C853 476.2 858.1 438.8 859.3 402.4C860.5 369.3 859.7 335.4 862.6 300.9C867.2 242.6 882.7 182.2 909.4 133C924.8 104.5 943.9 80.7 965.9 60.5C1005.8 23.8 1055.6 -0.500006 1111.2 -18.6C1141.8 -28.6 1173.5 -35.1 1205.5 -38" stroke="#8154F7" stroke-miterlimit="10"/>
<path d="M-30.9 796.4C17.2 811.8 85.4 815.5 148.9 811.4C181.9 809.2 213.4 804.2 241.6 793.8C270.5 783.3 294.2 768.3 319.6 751.1C327.7 745.7 335.5 739.9 343.1 733.7C372.7 709.8 400.4 686.8 439.9 670.7C477.9 655.3 515 642.7 549 638C557.3 636.9 565.5 636.6 573.5 636.5C595.9 636.2 617 640.7 642.6 642.7C658.5 643.9 674.6 642.7 691 639.8C734.8 632 768.1 613.8 792.3 588.3C795.6 584.8 798.7 581.1 801.6 577.4C815.9 558.7 827.4 535.5 835.5 508.9C845.2 476.7 849.6 439.7 851.3 403.7C852.9 370.8 853.4 336.7 857.3 302.2C863.8 243.9 880.6 183.8 908 135.3C923.9 107.1 943.4 83.6 965.7 63.8C1006 27.9 1056 4.39996 1111.7 -13.7C1142.2 -23.6 1173.8 -30.2 1205.7 -33.4" stroke="#874DF8" stroke-miterlimit="10"/>
<path d="M-26.4 805.2C22.2 825.3 90 831.4 153 826.2C185.8 823.4 217.2 817 245.1 805C273.6 792.7 296.7 775.7 321.5 757.1C329.4 751.2 336.9 745 344.3 738.5C373 713.3 399.6 688.8 438.8 672.4C476.1 656.7 513.8 645.6 548.5 643.2C557 642.6 565.4 642.9 573.5 643.6C596.4 645.6 617.7 651.8 643.3 654.9C659.3 656.8 675.3 655.8 691.3 652.6C734.4 644.1 767.6 621.7 790.2 593.4C793.3 589.5 796.2 585.5 798.8 581.5C811.9 561.2 821.9 537.1 828.8 510.2C837.1 477.6 840.8 441 843 405.5C845 372.8 846.8 338.6 851.8 304C860.1 245.7 878.3 186 906.4 138.1C922.9 110.1 942.7 87 965.4 67.7C1006.2 32.6 1056.3 9.89993 1112 -8.20007C1142.5 -18.1001 1174 -24.8 1205.7 -28.3" stroke="#8D46F9" stroke-miterlimit="10"/>
<path d="M-21.9 813.9C27.3 838.8 94.6 847.1 157.1 840.9C189.7 837.5 221 829.8 248.6 816C276.8 802 299.3 783 323.4 762.9C331.1 756.6 338.3 749.9 345.5 743.1C373.2 716.5 398.8 690.7 437.8 673.8C474.4 657.9 512.6 647.7 548 648.2C556.7 648.3 565.3 649 573.6 650.4C596.9 654.3 618.6 662.7 644.1 666.8C660.1 669.4 676 668.5 691.7 665.1C734.1 656 767.1 629.2 788.2 598.2C791.1 594 793.7 589.6 796.1 585.2C808 563.3 816.4 538.3 822.2 511.1C829.2 478.1 832.1 442 834.8 406.8C837.3 374.3 840.2 339.9 846.4 305.3C856.6 247 876.1 187.6 905 140.4C922 112.6 942.3 90.0001 965.2 71.0001C1006.5 36.7001 1056.7 14.8 1112.5 -3.19995C1142.9 -13 1174.3 -19.8 1206 -23.7" stroke="#9240FB" stroke-miterlimit="10"/>
<path d="M-17.4 822.7C32.4 852.4 99.2 863 161.3 855.6C193.8 851.7 224.9 842.5 252.2 827.1C280.1 811.3 301.9 790.3 325.4 768.8C332.8 762 339.9 755 346.8 747.8C373.6 719.9 398.2 692.7 436.8 675.4C472.7 659.3 511.5 650.9 547.6 653.4C556.5 654 565.2 655.4 573.8 657.5C597.6 663.2 619.5 673.8 645 679C661.1 682.3 676.9 681.6 692.2 678C733.9 668.2 766.7 637.2 786.3 603.4C789 598.8 791.4 594.1 793.5 589.4C804.2 565.9 811.1 540 815.7 512.5C821.3 479.1 823.6 443.5 826.7 408.7C829.7 376.3 833.8 341.8 841 307.2C853 248.9 873.9 189.9 903.5 143.3C921.1 115.8 941.7 93.5 964.9 75C1006.7 41.5 1057 20.4 1112.9 2.39996C1143.2 -7.40004 1174.5 -14.2 1206.1 -18.4" stroke="#9839FC" stroke-miterlimit="10"/>
<path d="M-13 831.5C37.4 866 103.7 878.9 165.3 870.4C197.6 865.9 228.6 855.4 255.6 838.2C283.1 820.7 304.3 797.7 327.2 774.7C334.4 767.5 341.2 760 347.9 752.5C373.7 723.3 397.3 694.8 435.7 677C470.9 660.8 510.2 653.7 547 658.5C556.1 659.7 565 661.7 573.7 664.4C597.9 671.9 620.2 684.8 645.6 691C661.8 695 677.5 694.4 692.4 690.6C733.4 680 766 644.8 784.1 608.3C786.6 603.3 788.8 598.2 790.7 593.2C800.2 568.2 805.6 541.3 809.1 513.5C813.4 479.7 814.9 444.5 818.5 410.2C821.9 378 827.3 343.4 835.6 308.7C849.5 250.3 871.7 191.7 902 145.8C920.1 118.5 941.1 96.6001 964.6 78.5001C1006.9 45.8001 1057.3 25.5001 1113.2 7.50006C1143.5 -2.19994 1174.7 -9.19995 1206.1 -13.7" stroke="#9D32FE" stroke-miterlimit="10"/>
<path d="M-8.5 840.3C69.3 900.2 181.9 904.1 259.1 849.3C286.3 830 306.8 805 329.1 780.6C363.4 743 386.7 701.4 434.6 678.5C477.6 657.9 529.1 654.2 573.8 671.3C598.5 680.7 621 695.7 646.4 703C713.9 722.3 770 655.1 788 597.2C806.4 538.2 802.8 473.8 810.3 411.9C820.6 326.2 850.8 220.6 900.5 148.4C952.8 72.5001 1026.5 40.7 1113.6 12.9C1143.8 3.20002 1174.9 -3.79998 1206.3 -8.59998" stroke="#A32BFF" stroke-miterlimit="10"/>
</g>
<mask id="mask5_4_966" style="mask-type:luminance" maskUnits="userSpaceOnUse" x="0" y="0" width="1200" height="800">
<path d="M1200 0H0V800H1200V0Z" fill="white"/>
</mask>
<g mask="url(#mask5_4_966)">
<path d="M730 674C731.105 674 732 673.105 732 672C732 670.895 731.105 670 730 670C728.895 670 728 670.895 728 672C728 673.105 728.895 674 730 674Z" fill="#2B3640"/>
<path d="M730 651C731.105 651 732 650.105 732 649C732 647.895 731.105 647 730 647C728.895 647 728 647.895 728 649C728 650.105 728.895 651 730 651Z" fill="#2B3640"/>
<path d="M730 628C731.105 628 732 627.105 732 626C732 624.895 731.105 624 730 624C728.895 624 728 624.895 728 626C728 627.105 728.895 628 730 628Z" fill="#2B3640"/>
<path d="M730 605C731.105 605 732 604.105 732 603C732 601.895 731.105 601 730 601C728.895 601 728 601.895 728 603C728 604.105 728.895 605 730 605Z" fill="#2B3640"/>
<path d="M730 582C731.105 582 732 581.105 732 580C732 578.895 731.105 578 730 578C728.895 578 728 578.895 728 580C728 581.105 728.895 582 730 582Z" fill="#2B3640"/>
<path d="M755 674C756.105 674 757 673.105 757 672C757 670.895 756.105 670 755 670C753.895 670 753 670.895 753 672C753 673.105 753.895 674 755 674Z" fill="#2B3640"/>
<path d="M755 651C756.105 651 757 650.105 757 649C757 647.895 756.105 647 755 647C753.895 647 753 647.895 753 649C753 650.105 753.895 651 755 651Z" fill="#2B3640"/>
<path d="M755 628C756.105 628 757 627.105 757 626C757 624.895 756.105 624 755 624C753.895 624 753 624.895 753 626C753 627.105 753.895 628 755 628Z" fill="#2B3640"/>
<path d="M755 605C756.105 605 757 604.105 757 603C757 601.895 756.105 601 755 601C753.895 601 753 601.895 753 603C753 604.105 753.895 605 755 605Z" fill="#2B3640"/>
<path d="M755 582C756.105 582 757 581.105 757 580C757 578.895 756.105 578 755 578C753.895 578 753 578.895 753 580C753 581.105 753.895 582 755 582Z" fill="#2B3640"/>
<path d="M780 674C781.105 674 782 673.105 782 672C782 670.895 781.105 670 780 670C778.895 670 778 670.895 778 672C778 673.105 778.895 674 780 674Z" fill="#2B3640"/>
<path d="M780 651C781.105 651 782 650.105 782 649C782 647.895 781.105 647 780 647C778.895 647 778 647.895 778 649C778 650.105 778.895 651 780 651Z" fill="#2B3640"/>
<path d="M780 628C781.105 628 782 627.105 782 626C782 624.895 781.105 624 780 624C778.895 624 778 624.895 778 626C778 627.105 778.895 628 780 628Z" fill="#2B3640"/>
<path d="M780 605C781.105 605 782 604.105 782 603C782 601.895 781.105 601 780 601C778.895 601 778 601.895 778 603C778 604.105 778.895 605 780 605Z" fill="#2B3640"/>
<path d="M780 582C781.105 582 782 581.105 782 580C782 578.895 781.105 578 780 578C778.895 578 778 578.895 778 580C778 581.105 778.895 582 780 582Z" fill="#2B3640"/>
<path d="M805 674C806.105 674 807 673.105 807 672C807 670.895 806.105 670 805 670C803.895 670 803 670.895 803 672C803 673.105 803.895 674 805 674Z" fill="#2B3640"/>
<path d="M805 651C806.105 651 807 650.105 807 649C807 647.895 806.105 647 805 647C803.895 647 803 647.895 803 649C803 650.105 803.895 651 805 651Z" fill="#2B3640"/>
<path d="M805 628C806.105 628 807 627.105 807 626C807 624.895 806.105 624 805 624C803.895 624 803 624.895 803 626C803 627.105 803.895 628 805 628Z" fill="#2B3640"/>
<path d="M805 605C806.105 605 807 604.105 807 603C807 601.895 806.105 601 805 601C803.895 601 803 601.895 803 603C803 604.105 803.895 605 805 605Z" fill="#2B3640"/>
<path d="M805 582C806.105 582 807 581.105 807 580C807 578.895 806.105 578 805 578C803.895 578 803 578.895 803 580C803 581.105 803.895 582 805 582Z" fill="#2B3640"/>
<path d="M830 674C831.105 674 832 673.105 832 672C832 670.895 831.105 670 830 670C828.895 670 828 670.895 828 672C828 673.105 828.895 674 830 674Z" fill="#2B3640"/>
<path d="M830 651C831.105 651 832 650.105 832 649C832 647.895 831.105 647 830 647C828.895 647 828 647.895 828 649C828 650.105 828.895 651 830 651Z" fill="#2B3640"/>
<path d="M830 628C831.105 628 832 627.105 832 626C832 624.895 831.105 624 830 624C828.895 624 828 624.895 828 626C828 627.105 828.895 628 830 628Z" fill="#2B3640"/>
<path d="M830 605C831.105 605 832 604.105 832 603C832 601.895 831.105 601 830 601C828.895 601 828 601.895 828 603C828 604.105 828.895 605 830 605Z" fill="#2B3640"/>
<path d="M830 582C831.105 582 832 581.105 832 580C832 578.895 831.105 578 830 578C828.895 578 828 578.895 828 580C828 581.105 828.895 582 830 582Z" fill="#2B3640"/>
<path d="M855 674C856.105 674 857 673.105 857 672C857 670.895 856.105 670 855 670C853.895 670 853 670.895 853 672C853 673.105 853.895 674 855 674Z" fill="#2B3640"/>
<path d="M855 651C856.105 651 857 650.105 857 649C857 647.895 856.105 647 855 647C853.895 647 853 647.895 853 649C853 650.105 853.895 651 855 651Z" fill="#2B3640"/>
<path d="M855 628C856.105 628 857 627.105 857 626C857 624.895 856.105 624 855 624C853.895 624 853 624.895 853 626C853 627.105 853.895 628 855 628Z" fill="#2B3640"/>
<path d="M855 605C856.105 605 857 604.105 857 603C857 601.895 856.105 601 855 601C853.895 601 853 601.895 853 603C853 604.105 853.895 605 855 605Z" fill="#2B3640"/>
<path d="M855 582C856.105 582 857 581.105 857 580C857 578.895 856.105 578 855 578C853.895 578 853 578.895 853 580C853 581.105 853.895 582 855 582Z" fill="#2B3640"/>
<path d="M880 674C881.105 674 882 673.105 882 672C882 670.895 881.105 670 880 670C878.895 670 878 670.895 878 672C878 673.105 878.895 674 880 674Z" fill="#2B3640"/>
<path d="M880 651C881.105 651 882 650.105 882 649C882 647.895 881.105 647 880 647C878.895 647 878 647.895 878 649C878 650.105 878.895 651 880 651Z" fill="#2B3640"/>
<path d="M880 628C881.105 628 882 627.105 882 626C882 624.895 881.105 624 880 624C878.895 624 878 624.895 878 626C878 627.105 878.895 628 880 628Z" fill="#2B3640"/>
<path d="M880 605C881.105 605 882 604.105 882 603C882 601.895 881.105 601 880 601C878.895 601 878 601.895 878 603C878 604.105 878.895 605 880 605Z" fill="#2B3640"/>
<path d="M880 582C881.105 582 882 581.105 882 580C882 578.895 881.105 578 880 578C878.895 578 878 578.895 878 580C878 581.105 878.895 582 880 582Z" fill="#2B3640"/>
<path d="M905 674C906.105 674 907 673.105 907 672C907 670.895 906.105 670 905 670C903.895 670 903 670.895 903 672C903 673.105 903.895 674 905 674Z" fill="#2B3640"/>
<path d="M905 651C906.105 651 907 650.105 907 649C907 647.895 906.105 647 905 647C903.895 647 903 647.895 903 649C903 650.105 903.895 651 905 651Z" fill="#2B3640"/>
<path d="M905 628C906.105 628 907 627.105 907 626C907 624.895 906.105 624 905 624C903.895 624 903 624.895 903 626C903 627.105 903.895 628 905 628Z" fill="#2B3640"/>
<path d="M905 605C906.105 605 907 604.105 907 603C907 601.895 906.105 601 905 601C903.895 601 903 601.895 903 603C903 604.105 903.895 605 905 605Z" fill="#2B3640"/>
<path d="M905 582C906.105 582 907 581.105 907 580C907 578.895 906.105 578 905 578C903.895 578 903 578.895 903 580C903 581.105 903.895 582 905 582Z" fill="#2B3640"/>
<path d="M930 674C931.105 674 932 673.105 932 672C932 670.895 931.105 670 930 670C928.895 670 928 670.895 928 672C928 673.105 928.895 674 930 674Z" fill="#2B3640"/>
<path d="M930 651C931.105 651 932 650.105 932 649C932 647.895 931.105 647 930 647C928.895 647 928 647.895 928 649C928 650.105 928.895 651 930 651Z" fill="#2B3640"/>
<path d="M930 628C931.105 628 932 627.105 932 626C932 624.895 931.105 624 930 624C928.895 624 928 624.895 928 626C928 627.105 928.895 628 930 628Z" fill="#2B3640"/>
<path d="M930 605C931.105 605 932 604.105 932 603C932 601.895 931.105 601 930 601C928.895 601 928 601.895 928 603C928 604.105 928.895 605 930 605Z" fill="#2B3640"/>
<path d="M930 582C931.105 582 932 581.105 932 580C932 578.895 931.105 578 930 578C928.895 578 928 578.895 928 580C928 581.105 928.895 582 930 582Z" fill="#2B3640"/>
<path d="M955 674C956.105 674 957 673.105 957 672C957 670.895 956.105 670 955 670C953.895 670 953 670.895 953 672C953 673.105 953.895 674 955 674Z" fill="#2B3640"/>
<path d="M955 651C956.105 651 957 650.105 957 649C957 647.895 956.105 647 955 647C953.895 647 953 647.895 953 649C953 650.105 953.895 651 955 651Z" fill="#2B3640"/>
<path d="M955 628C956.105 628 957 627.105 957 626C957 624.895 956.105 624 955 624C953.895 624 953 624.895 953 626C953 627.105 953.895 628 955 628Z" fill="#2B3640"/>
<path d="M955 605C956.105 605 957 604.105 957 603C957 601.895 956.105 601 955 601C953.895 601 953 601.895 953 603C953 604.105 953.895 605 955 605Z" fill="#2B3640"/>
<path d="M955 582C956.105 582 957 581.105 957 580C957 578.895 956.105 578 955 578C953.895 578 953 578.895 953 580C953 581.105 953.895 582 955 582Z" fill="#2B3640"/>
<path d="M980 674C981.105 674 982 673.105 982 672C982 670.895 981.105 670 980 670C978.895 670 978 670.895 978 672C978 673.105 978.895 674 980 674Z" fill="#2B3640"/>
<path d="M980 651C981.105 651 982 650.105 982 649C982 647.895 981.105 647 980 647C978.895 647 978 647.895 978 649C978 650.105 978.895 651 980 651Z" fill="#2B3640"/>
<path d="M980 628C981.105 628 982 627.105 982 626C982 624.895 981.105 624 980 624C978.895 624 978 624.895 978 626C978 627.105 978.895 628 980 628Z" fill="#2B3640"/>
<path d="M980 605C981.105 605 982 604.105 982 603C982 601.895 981.105 601 980 601C978.895 601 978 601.895 978 603C978 604.105 978.895 605 980 605Z" fill="#2B3640"/>
<path d="M980 582C981.105 582 982 581.105 982 580C982 578.895 981.105 578 980 578C978.895 578 978 578.895 978 580C978 581.105 978.895 582 980 582Z" fill="#2B3640"/>
<path d="M1005 674C1006.1 674 1007 673.105 1007 672C1007 670.895 1006.1 670 1005 670C1003.9 670 1003 670.895 1003 672C1003 673.105 1003.9 674 1005 674Z" fill="#2B3640"/>
<path d="M1005 651C1006.1 651 1007 650.105 1007 649C1007 647.895 1006.1 647 1005 647C1003.9 647 1003 647.895 1003 649C1003 650.105 1003.9 651 1005 651Z" fill="#2B3640"/>
<path d="M1005 628C1006.1 628 1007 627.105 1007 626C1007 624.895 1006.1 624 1005 624C1003.9 624 1003 624.895 1003 626C1003 627.105 1003.9 628 1005 628Z" fill="#2B3640"/>
<path d="M1005 605C1006.1 605 1007 604.105 1007 603C1007 601.895 1006.1 601 1005 601C1003.9 601 1003 601.895 1003 603C1003 604.105 1003.9 605 1005 605Z" fill="#2B3640"/>
<path d="M1005 582C1006.1 582 1007 581.105 1007 580C1007 578.895 1006.1 578 1005 578C1003.9 578 1003 578.895 1003 580C1003 581.105 1003.9 582 1005 582Z" fill="#2B3640"/>
<path d="M1030 674C1031.1 674 1032 673.105 1032 672C1032 670.895 1031.1 670 1030 670C1028.9 670 1028 670.895 1028 672C1028 673.105 1028.9 674 1030 674Z" fill="#2B3640"/>
<path d="M1030 651C1031.1 651 1032 650.105 1032 649C1032 647.895 1031.1 647 1030 647C1028.9 647 1028 647.895 1028 649C1028 650.105 1028.9 651 1030 651Z" fill="#2B3640"/>
<path d="M1030 628C1031.1 628 1032 627.105 1032 626C1032 624.895 1031.1 624 1030 624C1028.9 624 1028 624.895 1028 626C1028 627.105 1028.9 628 1030 628Z" fill="#2B3640"/>
<path d="M1030 605C1031.1 605 1032 604.105 1032 603C1032 601.895 1031.1 601 1030 601C1028.9 601 1028 601.895 1028 603C1028 604.105 1028.9 605 1030 605Z" fill="#2B3640"/>
<path d="M1030 582C1031.1 582 1032 581.105 1032 580C1032 578.895 1031.1 578 1030 578C1028.9 578 1028 578.895 1028 580C1028 581.105 1028.9 582 1030 582Z" fill="#2B3640"/>
</g>
</g>
<defs>
<clipPath id="clip0_4_966">
<rect width="1200" height="800" rx="40" fill="white"/>
</clipPath>
</defs>
</svg>
